<svg width="225" height="70" viewBox="0 0 225 70" fill="none" xmlns="http://www.w3.org/2000/svg">
<path d="M7.89536 31.4433C7.76741 31.5592 7.45954 31.6192 6.96775 31.6192H0.826332C0.162612 31.6192 -0.101277 31.3313 0.0346654 30.7516L4.99258 9.55648C5.23647 8.51691 5.61631 7.50134 6.14009 6.50576C6.65988 5.51418 7.33159 4.63455 8.16324 3.86687C8.99089 3.10319 9.99047 2.48745 11.17 2.02765C12.3415 1.56784 13.6969 1.33594 15.2203 1.33594H28.3747C28.7226 1.33594 28.9345 1.38792 29.0105 1.49187C29.0864 1.59183 29.0664 1.88371 28.9545 2.3755L27.811 7.26544C27.723 7.64128 27.6071 7.89318 27.4591 8.02112C27.3112 8.14907 27.0793 8.21704 26.7634 8.21704H16.0799C15.5042 8.21704 15.0204 8.29701 14.6405 8.45694C14.2527 8.61287 13.9488 8.80879 13.7249 9.04069C13.497 9.2726 13.3211 9.53249 13.1931 9.82036C13.0692 10.1082 12.9732 10.3961 12.9052 10.684L12.2815 13.3669H23.6567C24.0046 13.3669 24.2125 13.4268 24.2885 13.5388C24.3644 13.6547 24.3404 13.9586 24.2245 14.4464L23.1729 18.9445C23.017 19.6082 22.6691 19.9401 22.1174 19.9401H10.7422L8.21122 30.7516C8.12726 31.0994 8.0233 31.3273 7.89935 31.4433" fill="white"/>
<path d="M54.9234 16.4377C54.3557 18.8607 53.584 21.0358 52.6124 22.9709C51.6408 24.9061 50.4453 26.5494 49.0179 27.9009C47.5905 29.2563 45.9112 30.2959 43.984 31.0156C42.0529 31.7353 39.8658 32.0951 37.4148 32.0951C34.9638 32.0951 33.1326 31.7433 31.5813 31.0356C30.0339 30.3279 28.8664 29.3043 28.0867 27.9648C27.3031 26.6214 26.8712 24.9821 26.7913 23.0509C26.7073 21.1197 26.9512 18.9446 27.519 16.5177C28.0707 14.1547 28.8744 12.0036 29.918 10.0764C30.9615 8.14519 32.213 6.48989 33.6724 5.12246C35.1318 3.75104 36.7991 2.69948 38.6743 1.96379C40.5455 1.2281 42.6086 0.864258 44.8557 0.864258C47.1027 0.864258 49.1339 1.2321 50.6772 1.96379C52.2206 2.69948 53.4041 3.74305 54.2277 5.09847C55.0474 6.4539 55.5072 8.09321 55.6072 10.0084C55.7031 11.9276 55.4792 14.0667 54.9274 16.4337M46.3071 16.4777C46.543 15.3542 46.6989 14.2786 46.7789 13.255C46.8628 12.2315 46.8029 11.3438 46.6029 10.5922C46.403 9.84448 46.0232 9.24873 45.4634 8.80092C44.9077 8.3571 44.12 8.1292 43.1124 8.1292C42.2768 8.1292 41.4891 8.34511 40.7534 8.78092C40.0177 9.21274 39.362 9.8005 38.7862 10.5322C38.2105 11.2679 37.7067 12.1275 37.2789 13.1031C36.847 14.0827 36.5032 15.1063 36.2553 16.1778C35.9474 17.5052 35.7515 18.7007 35.6755 19.7643C35.5996 20.8319 35.6755 21.7355 35.9114 22.4672C36.1393 23.2029 36.5432 23.7706 37.1109 24.1744C37.6827 24.5783 38.4544 24.7822 39.438 24.7822C40.4215 24.7822 41.2332 24.5583 41.9729 24.1105C42.7126 23.6627 43.3563 23.0589 43.9081 22.2952C44.4638 21.5316 44.9356 20.6439 45.3315 19.6364C45.7273 18.6248 46.0552 17.5732 46.3111 16.4777" fill="white"/>
<path d="M67.1066 15.226L63.4081 30.7115C63.3282 31.0593 63.2202 31.2952 63.0883 31.4272C62.9523 31.5551 62.6445 31.6231 62.1527 31.6231H56.0113C55.3475 31.6231 55.0877 31.3232 55.2316 30.7155L61.429 4.7664C61.7528 3.41097 62.1927 2.49936 62.7524 2.03955C63.3042 1.57974 64.1918 1.34784 65.4033 1.34784H67.6504C68.0822 1.34784 68.454 1.37183 68.7619 1.41181C69.0698 1.45579 69.3417 1.53976 69.5816 1.6717C69.8254 1.79965 70.0454 1.99557 70.2453 2.25546C70.4452 2.51535 70.6491 2.8632 70.861 3.29502L74.8393 12.5511L76.9544 17.8289H77.2583L80.9728 2.25146C81.0567 1.90361 81.1607 1.66771 81.2926 1.53576C81.4246 1.40782 81.7364 1.33984 82.2242 1.33984H88.3656C89.0294 1.33984 89.2893 1.64372 89.1413 2.24746L82.9479 28.2005C82.712 29.1801 82.3162 29.9958 81.7604 30.6435C81.2007 31.2912 80.2731 31.6191 78.9776 31.6191H76.7305C76.3267 31.6191 75.9629 31.5991 75.643 31.5551C75.3191 31.5111 75.0393 31.4272 74.7954 31.2952C74.5515 31.1673 74.3236 30.9714 74.1116 30.7115C73.8997 30.4516 73.6998 30.1077 73.5159 29.6719L69.5855 20.5917L67.4065 15.226H67.1026H67.1066Z" fill="white"/>
<path d="M25.1079 51.6268C25.8756 51.9906 26.4953 52.4584 26.9551 53.0222C27.4149 53.59 27.7588 54.2137 27.9827 54.9014C28.2026 55.5891 28.3065 56.3088 28.2985 57.0525C28.2945 57.8002 28.2066 58.5399 28.0307 59.2716C27.6868 60.7389 27.0911 62.0744 26.2434 63.2859C25.3958 64.4894 24.3642 65.5329 23.1527 66.4006C21.9452 67.2722 20.6018 67.9439 19.1344 68.4157C17.663 68.8915 16.1317 69.1234 14.5443 69.1234H2.63735C1.38188 69.1234 0.6302 68.8875 0.374308 68.4157C0.122414 67.9439 0.118415 67.1722 0.366311 66.1007L6.45974 40.0716C6.69565 39.0641 7.05549 38.3084 7.54329 37.8046C8.02709 37.2968 8.89472 37.0449 10.1462 37.0449H22.0612C23.4326 37.0449 24.6841 37.2009 25.8036 37.5047C26.9231 37.8086 27.8467 38.3004 28.5744 38.9721C29.3021 39.6478 29.8059 40.5035 30.0818 41.539C30.3577 42.5786 30.3257 43.8301 29.9778 45.2974C29.702 46.4889 29.1102 47.6445 28.2066 48.76C27.307 49.8755 26.2954 50.7392 25.1759 51.3509L25.1079 51.6268ZM13.057 48.8799H17.839C18.4427 48.8799 19.0424 48.724 19.6342 48.4201C20.218 48.1163 20.6138 47.5165 20.8217 46.6329C20.9856 45.9332 20.9017 45.3974 20.5818 45.0296C20.2579 44.6617 19.7462 44.4818 19.0504 44.4818H14.0885L13.057 48.8799ZM19.2384 58.6838C19.4463 57.7962 19.3503 57.0725 18.9505 56.5087C18.5507 55.945 17.8509 55.6611 16.8474 55.6611H11.4696L10.0622 61.6666H15.436C16.0437 61.6666 16.5675 61.5746 17.0073 61.3907C17.4431 61.2067 17.815 60.9589 18.1348 60.659C18.4507 60.3551 18.6866 60.0352 18.8625 59.6954C19.0305 59.3555 19.1544 59.0237 19.2304 58.6878" fill="white"/>
<path d="M52.4647 69.1312H38.3026C36.4674 69.1312 35.044 68.8713 34.0204 68.3515C32.9969 67.8278 32.2532 67.1521 31.7934 66.3124C31.3336 65.4728 31.1017 64.5332 31.0977 63.4936C31.0977 62.454 31.2176 61.4305 31.4495 60.4229L34.8801 45.7611C35.14 44.6615 35.5438 43.586 36.0956 42.5304C36.6473 41.4789 37.363 40.5473 38.2386 39.7356C39.1143 38.9279 40.1778 38.2762 41.4213 37.7844C42.6648 37.2966 44.0962 37.0527 45.7155 37.0527H59.2338C59.6017 37.0527 59.8256 37.1087 59.9055 37.2167C59.9895 37.3206 59.9655 37.6365 59.8496 38.1523L58.6421 43.3341C58.5461 43.7299 58.4221 43.9978 58.2662 44.1338C58.1143 44.2697 57.8664 44.3417 57.5345 44.3417H46.6311C46.0194 44.3417 45.5076 44.4256 45.1078 44.5936C44.6999 44.7615 44.3761 44.9654 44.1362 45.2133C43.8923 45.4572 43.7083 45.7291 43.5764 46.037C43.4445 46.3448 43.3445 46.6487 43.2725 46.9526L42.8207 48.8798H55.1035C55.4714 48.8798 55.6913 48.9437 55.7713 49.0597C55.8472 49.1836 55.8272 49.5075 55.7033 50.0233L54.5918 54.7853C54.4238 55.489 54.052 55.8368 53.4722 55.8368H41.1894L40.3857 59.2754C40.2498 59.8591 40.2098 60.3189 40.2698 60.6508C40.3258 60.9867 40.4577 61.2345 40.6656 61.4065C40.8735 61.5744 41.1374 61.6824 41.4613 61.7263C41.7892 61.7703 42.149 61.7943 42.5448 61.7943H54.1839C54.5518 61.7943 54.7717 61.8503 54.8556 61.9582C54.9356 62.0622 54.9196 62.3781 54.7957 62.8938L53.5842 68.0757C53.4203 68.7794 53.0444 69.1272 52.4647 69.1272" fill="white"/>
<path d="M86.762 44.3416H78.9253L73.3476 68.1715C73.2637 68.5394 73.1517 68.7913 73.0118 68.9272C72.8679 69.0632 72.54 69.1351 72.0202 69.1351H65.511C64.8112 69.1351 64.5354 68.8113 64.6873 68.1715L70.2649 44.3416H62.6082C61.9684 44.3416 61.7285 43.9897 61.8925 43.29L63.092 38.1562C63.2159 37.6364 63.3559 37.3245 63.5238 37.2166C63.6837 37.1086 63.9516 37.0566 64.3155 37.0566H88.4693C88.8331 37.0566 89.073 37.1086 89.185 37.2166C89.2969 37.3245 89.2929 37.6364 89.173 38.1562L87.9735 43.29C87.8056 43.9897 87.4057 44.3416 86.766 44.3416" fill="white"/>
<g clip-path="url(#clip0_2_21335)">
<path d="M109.954 23.6865L132.581 46.3139" stroke="white" stroke-linecap="square" stroke-linejoin="round"/>
<path d="M109.954 46.3135L132.581 23.6861" stroke="white" stroke-linecap="square" stroke-linejoin="round"/>
</g>
<g clip-path="url(#clip1_2_21335)">
<mask id="mask0_2_21335" style="mask-type:luminance" maskUnits="userSpaceOnUse" x="153" y="0" width="72" height="70">
<path d="M224.266 0H153.266V70H224.266V0Z" fill="white"/>
</mask>
<g mask="url(#mask0_2_21335)">
<path fill-rule="evenodd" clip-rule="evenodd" d="M188.766 0C208.372 0 224.266 15.67 224.266 35.0003C224.266 54.3305 208.372 70 188.766 70C169.16 70 153.266 54.33 153.266 35.0003C153.266 15.6705 169.16 0 188.766 0Z" fill="#040505"/>
<path fill-rule="evenodd" clip-rule="evenodd" d="M191.648 2.2435C199.336 2.90035 206.555 6.16503 212.075 11.4813C217.595 16.7975 221.074 23.8363 221.92 31.3983C222.766 38.9604 220.927 46.5777 216.715 52.9523C212.503 59.327 206.179 64.0645 198.822 66.3577C191.464 68.6508 183.527 68.3577 176.364 65.5283C169.201 62.6988 163.255 57.5082 159.538 50.8407C155.822 44.1733 154.566 36.4416 155.983 28.9632C157.401 21.4847 161.405 14.7223 167.313 9.8281C170.662 7.04556 174.536 4.94306 178.713 3.64144C182.889 2.33982 187.285 1.86474 191.648 2.2435ZM213.76 14.2952C208.902 8.5928 202.188 4.72776 194.763 3.3587C187.337 1.98965 179.661 3.20128 173.04 6.78715C166.42 10.373 161.265 16.1113 158.455 23.0241C155.644 29.9369 155.352 37.5966 157.628 44.698C159.904 51.7994 164.607 57.903 170.935 61.969C177.264 66.0349 184.827 67.8115 192.335 66.9961C199.844 66.1807 206.833 62.8237 212.112 57.4971C217.392 52.1705 220.634 45.2039 221.288 37.7844C221.665 33.5731 221.194 29.3299 219.902 25.2987C218.61 21.2675 216.523 17.5277 213.76 14.2944" fill="#B8875A"/>
<path fill-rule="evenodd" clip-rule="evenodd" d="M170.787 52.0338L170.21 52.5958L171.208 53.5921L170.803 53.9875L169.805 52.9907L169.009 53.765L168.51 53.2661L170.694 51.1406L172.323 52.7682L171.918 53.1631L170.787 52.0338ZM172.139 56.5736C172.373 56.7567 172.651 56.878 172.947 56.9263C173.227 56.9715 173.514 56.9409 173.777 56.8377C174.041 56.7345 174.271 56.5627 174.443 56.3405C174.615 56.1184 174.723 55.8543 174.755 55.5765C174.787 55.2986 174.741 55.0175 174.624 54.7631C174.494 54.4975 174.303 54.2658 174.065 54.0869C173.828 53.9079 173.551 53.7867 173.257 53.7331C172.98 53.6863 172.695 53.7159 172.434 53.8184C172.171 53.9269 171.941 54.1017 171.768 54.3252C171.594 54.5487 171.484 54.8132 171.446 55.0922C171.414 55.3673 171.46 55.6456 171.579 55.8966C171.705 56.1651 171.897 56.398 172.138 56.574M172.505 56.1002C172.367 55.9992 172.259 55.864 172.191 55.7083C172.125 55.5573 172.104 55.3914 172.129 55.2291C172.159 55.0571 172.231 54.8948 172.339 54.7561C172.446 54.6174 172.586 54.5063 172.747 54.4324C172.899 54.366 173.067 54.3428 173.232 54.3652C173.401 54.3914 173.561 54.4589 173.698 54.5616C173.834 54.6643 173.942 54.799 174.012 54.9533C174.077 55.1043 174.099 55.2702 174.074 55.4325C174.044 55.6046 173.972 55.7669 173.865 55.9057C173.757 56.0444 173.617 56.1555 173.457 56.2295C173.305 56.2957 173.137 56.3188 172.972 56.2961C172.802 56.2727 172.641 56.2051 172.506 56.1004M175.827 58.9146C175.564 58.7732 175.34 58.5688 175.178 58.3201C175.026 58.0877 174.941 57.8183 174.934 57.5417C174.931 57.2603 175.004 56.9832 175.144 56.7381C175.285 56.493 175.488 56.2886 175.733 56.1452C175.978 56.008 176.255 55.9401 176.536 55.9488C176.835 55.9617 177.126 56.0439 177.387 56.1887C177.647 56.3335 177.869 56.5369 178.035 56.7822C178.187 57.0181 178.272 57.2904 178.279 57.57C178.287 57.8495 178.217 58.1258 178.078 58.3694C177.938 58.6129 177.734 58.8146 177.488 58.9527C177.241 59.0909 176.961 59.1605 176.678 59.154C176.378 59.1458 176.086 59.0635 175.827 58.9146ZM176.125 58.3951C176.273 58.4805 176.441 58.5255 176.613 58.5257C176.78 58.5258 176.943 58.48 177.084 58.3933C177.233 58.2981 177.356 58.1689 177.443 58.0167C177.53 57.8645 177.579 57.6937 177.584 57.5191C177.586 57.355 177.542 57.1937 177.456 57.0531C177.365 56.9097 177.239 56.7911 177.089 56.708C176.94 56.6249 176.772 56.58 176.6 56.5773C176.434 56.5777 176.271 56.6237 176.129 56.7102C175.981 56.8051 175.858 56.9341 175.771 57.0861C175.684 57.2382 175.635 57.4087 175.63 57.5832C175.628 57.7473 175.672 57.9087 175.758 58.0492C175.847 58.1942 175.974 58.3133 176.125 58.3945M179.911 57.9958L178.992 57.6524L179.197 57.1193L181.698 58.0537L181.493 58.5874L180.575 58.244L179.692 60.5397L179.028 60.2916L179.911 57.9958ZM184.181 60.0835C184.315 60.0484 184.437 59.9777 184.532 59.8789C184.629 59.7782 184.694 59.6526 184.721 59.5168C184.748 59.4068 184.746 59.2919 184.716 59.1828C184.686 59.0736 184.628 58.9737 184.549 58.8923C184.383 58.7137 184.117 58.5857 183.751 58.5083L182.285 58.2002L181.645 61.1591L183.197 61.4853C183.589 61.5677 183.902 61.5607 184.136 61.4642C184.249 61.4196 184.349 61.3471 184.425 61.2536C184.502 61.1602 184.552 61.0489 184.572 60.9305C184.614 60.7656 184.598 60.5918 184.527 60.4371C184.452 60.2864 184.331 60.1628 184.181 60.0839M182.864 58.861L183.554 59.0062C183.692 59.026 183.821 59.0846 183.926 59.175C183.963 59.2122 183.989 59.2584 184.003 59.309C184.016 59.3595 184.016 59.4126 184.002 59.4629C183.993 59.5149 183.971 59.5637 183.938 59.6048C183.905 59.6458 183.861 59.6776 183.812 59.697C183.679 59.7384 183.536 59.7408 183.402 59.7039L182.712 59.5586L182.864 58.861ZM183.257 60.9591L182.447 60.7884L182.605 60.0575L183.415 60.2278C183.784 60.3053 183.942 60.4667 183.889 60.712C183.881 60.7666 183.858 60.8181 183.823 60.8612C183.788 60.9044 183.742 60.9375 183.69 60.9572C183.549 60.998 183.399 60.9987 183.257 60.9592M187.659 61.3669L186.236 61.3065L185.936 61.9427L185.209 61.9123L186.707 58.947L187.408 58.9765L188.648 62.0575L187.903 62.0257L187.659 61.3669ZM187.459 60.8254L187.023 59.6472L186.487 60.7836L187.459 60.8254ZM189.372 59.0698L190.08 59.0046L190.31 61.4494L191.842 61.3092L191.896 61.8772L189.656 62.0822L189.372 59.0698ZM192.425 58.7701L193.124 58.6452L193.568 61.061L195.082 60.7903L195.185 61.3514L192.972 61.7468L192.425 58.7701ZM198.811 60.2358C198.539 60.349 198.242 60.3928 197.948 60.3633C197.671 60.336 197.407 60.2339 197.184 60.0683C196.959 59.8934 196.784 59.6635 196.676 59.4015C196.568 59.1395 196.532 58.8543 196.57 58.5741C196.612 58.302 196.73 58.0467 196.91 57.8364C197.102 57.6128 197.347 57.4402 197.624 57.3346C197.852 57.2396 198.097 57.1923 198.345 57.1957C198.573 57.2 198.797 57.2575 198.998 57.3634L198.734 57.9172C198.604 57.8475 198.461 57.8075 198.314 57.8C198.166 57.7925 198.019 57.8178 197.883 57.874C197.718 57.937 197.572 58.0412 197.459 58.1766C197.354 58.305 197.287 58.46 197.267 58.6239C197.25 58.7978 197.276 58.9732 197.342 59.135C197.409 59.2969 197.514 59.4405 197.649 59.5535C197.779 59.6574 197.937 59.723 198.103 59.7428C198.279 59.7628 198.458 59.7373 198.621 59.6688C198.759 59.6156 198.883 59.5324 198.983 59.4253C199.083 59.3182 199.157 59.1901 199.2 59.0507L199.78 59.266C199.713 59.4827 199.592 59.6799 199.43 59.8405C199.254 60.013 199.043 60.148 198.812 60.2369M199.555 56.5527L201.012 59.2163L202.991 58.1636L202.717 57.6613L201.361 58.3819L200.18 56.2206L199.555 56.5527ZM205.016 56.8735C204.66 57.1247 204.312 57.2232 203.972 57.1689C203.633 57.1146 203.332 56.9068 203.07 56.5454L202.069 55.1679L202.647 54.7603L203.632 56.1171C203.952 56.5576 204.297 56.647 204.668 56.3854C204.748 56.3365 204.816 56.2706 204.868 56.1925C204.919 56.1144 204.952 56.026 204.965 55.9337C204.983 55.7605 204.909 55.5601 204.744 55.3324L203.76 53.9756L204.33 53.5733L205.33 54.9512C205.592 55.3117 205.694 55.6593 205.637 55.994C205.58 56.3287 205.374 56.6219 205.017 56.8735M207.64 52.445C207.684 52.3154 207.691 52.1764 207.66 52.0432C207.627 51.9086 207.556 51.7858 207.456 51.689C207.378 51.6064 207.28 51.5446 207.17 51.5094C207.061 51.4743 206.945 51.4669 206.833 51.4879C206.59 51.5262 206.335 51.6749 206.069 51.9338L205.002 52.9722L207.157 55.1257L208.287 54.0259C208.572 53.7488 208.738 53.487 208.785 53.2406C208.81 53.1231 208.803 53.0014 208.765 52.8872C208.728 52.773 208.662 52.6703 208.572 52.5887C208.456 52.4638 208.299 52.3815 208.129 52.3552C207.961 52.3338 207.789 52.3652 207.64 52.445ZM205.879 52.859L206.382 52.3699C206.474 52.2676 206.595 52.1935 206.729 52.1565C206.781 52.1461 206.834 52.1495 206.885 52.1662C206.935 52.1829 206.98 52.2124 207.015 52.2516C207.054 52.2871 207.083 52.3319 207.1 52.3819C207.117 52.4318 207.12 52.4851 207.109 52.5366C207.071 52.6689 206.995 52.7874 206.89 52.8776L206.388 53.3661L205.879 52.859ZM207.873 53.6875L207.284 54.262L206.751 53.7297L207.34 53.1552C207.609 52.8943 207.832 52.8529 208.011 53.0311C208.053 53.0677 208.084 53.1147 208.102 53.1672C208.119 53.2197 208.122 53.2759 208.11 53.3298C208.066 53.4684 207.984 53.5923 207.873 53.6874" fill="#B8875A"/>
<path fill-rule="evenodd" clip-rule="evenodd" d="M174.998 15.8246L175.637 16.5839L172.025 19.5423L171.519 18.9418L171.93 15.5253C171.976 15.2246 171.972 14.9185 171.918 14.6192C171.872 14.4166 171.779 14.2273 171.646 14.0658C171.569 13.9628 171.469 13.8793 171.353 13.8222C171.237 13.7651 171.109 13.7361 170.979 13.7376C170.724 13.744 170.448 13.8696 170.149 14.1144C169.649 14.523 169.408 15.0044 169.425 15.5585L168.381 15.5972C168.362 15.1724 168.457 14.7501 168.657 14.3733C168.88 13.9472 169.191 13.5717 169.569 13.271C170.101 12.8354 170.631 12.6117 171.158 12.6C171.414 12.5928 171.668 12.6456 171.9 12.7542C172.131 12.8627 172.333 13.0239 172.489 13.2244C172.706 13.4787 172.861 13.7783 172.943 14.1005C173.028 14.5342 173.034 14.9792 172.962 15.4151L172.688 17.7162L174.998 15.8246ZM176.09 8.95724L178.711 8.0277C179.297 7.80771 179.926 7.72643 180.55 7.79041C181.112 7.84929 181.645 8.06752 182.085 8.41873C182.536 8.78865 182.874 9.27461 183.062 9.8226C183.271 10.3629 183.324 10.9497 183.216 11.5181C183.104 12.0648 182.834 12.5679 182.438 12.9668C181.999 13.4075 181.461 13.7402 180.868 13.938L178.247 14.8681L176.09 8.95724ZM180.477 13.0286C180.882 12.895 181.249 12.6685 181.547 12.3678C181.813 12.0979 181.992 11.7558 182.059 11.3853C182.125 10.9937 182.084 10.5917 181.939 10.2212C181.811 9.8451 181.584 9.50945 181.281 9.24898C180.989 9.00568 180.63 8.85351 180.251 8.81187C179.827 8.76793 179.398 8.82356 178.999 8.97423L177.543 9.49077L179.022 13.5446L180.477 13.0286ZM189.049 12.5513L187.704 10.7413C187.65 10.7481 187.568 10.753 187.459 10.756L186.021 10.7884L186.064 12.6185L184.881 12.6455L184.734 6.36518L187.355 6.30536C187.849 6.28316 188.342 6.36371 188.803 6.54178C189.192 6.69214 189.526 6.95328 189.763 7.29186C189.997 7.64471 190.12 8.05715 190.118 8.4783C190.14 8.91041 190.028 9.33889 189.797 9.70658C189.558 10.063 189.213 10.3374 188.809 10.4919L190.322 12.5222L189.049 12.5513ZM188.927 8.5049C188.933 8.33056 188.898 8.15717 188.825 7.9984C188.752 7.83964 188.642 7.69985 188.504 7.59009C188.232 7.38061 187.838 7.28186 187.323 7.29385L185.939 7.3252L185.998 9.82834L187.382 9.79699C187.897 9.78525 188.286 9.66719 188.548 9.44281C188.68 9.32556 188.783 9.17999 188.848 9.01736C188.914 8.85473 188.941 8.67939 188.927 8.5049ZM193.897 13.2007C193.296 13.0857 192.734 12.8231 192.264 12.4374C191.82 12.073 191.487 11.595 191.301 11.056C191.112 10.5047 191.08 9.91293 191.209 9.34502C191.322 8.77404 191.592 8.24466 191.989 7.81451C192.379 7.3942 192.878 7.08812 193.433 6.93005C194.022 6.77118 194.641 6.75268 195.239 6.87608C195.837 6.99948 196.397 7.26124 196.872 7.6398C197.315 8.00322 197.648 8.47949 197.835 9.01669C198.025 9.56916 198.056 10.1625 197.927 10.7315C197.814 11.3043 197.543 11.8354 197.145 12.2669C196.755 12.685 196.256 12.9893 195.702 13.1469C195.114 13.3145 194.493 13.3329 193.896 13.2003M194.109 12.1991C194.5 12.2859 194.907 12.2703 195.29 12.154C195.658 12.041 195.986 11.8293 196.238 11.5428C196.503 11.2432 196.682 10.8804 196.759 10.4906C196.847 10.1031 196.83 9.69963 196.71 9.32067C196.595 8.95845 196.381 8.63476 196.091 8.38575C195.784 8.13287 195.418 7.95835 195.027 7.87759C194.635 7.79684 194.229 7.81231 193.845 7.92267C193.478 8.03543 193.15 8.24691 192.897 8.53337C192.633 8.83286 192.453 9.19576 192.376 9.58556C192.288 9.97304 192.305 10.3766 192.425 10.7555C192.54 11.1177 192.754 11.4414 193.045 11.6904C193.348 11.9485 193.715 12.1239 194.109 12.1991M201.395 10.1787L199.52 9.22313L199.98 8.34654L204.782 10.7957L204.322 11.6723L202.447 10.7158L199.979 15.419L198.928 14.8828L201.395 10.1787ZM203.476 17.9633C203.832 18.2897 204.252 18.5405 204.71 18.7002C205.064 18.8251 205.447 18.8464 205.813 18.7615C206.143 18.6769 206.438 18.4954 206.66 18.2411C206.91 17.9897 207.056 17.6551 207.068 17.3032C207.068 16.9872 206.99 16.6759 206.842 16.3957C206.65 16.0439 206.433 15.7059 206.193 15.3841C205.99 15.0957 205.835 14.8616 205.729 14.6816C205.629 14.5211 205.564 14.3424 205.537 14.1562C205.525 14.074 205.533 13.9903 205.558 13.9112C205.584 13.8321 205.627 13.7596 205.685 13.699C205.766 13.6052 205.871 13.5337 205.988 13.4912C206.106 13.4488 206.232 13.4369 206.356 13.4567C206.631 13.4881 206.943 13.6562 207.294 13.961C207.517 14.1568 207.712 14.3821 207.872 14.6306C208.045 14.8937 208.183 15.1777 208.282 15.4757L209.169 15.0386C209.073 14.7009 208.919 14.3816 208.715 14.0943C208.498 13.7786 208.241 13.4911 207.951 13.2388C207.596 12.9132 207.177 12.6635 206.72 12.5055C206.366 12.382 205.982 12.3629 205.617 12.4505C205.287 12.5367 204.99 12.7191 204.767 12.9739C204.514 13.2283 204.366 13.5659 204.351 13.9216C204.349 14.2367 204.425 14.5475 204.573 14.8266C204.77 15.1814 204.989 15.5234 205.23 15.8507C205.433 16.1391 205.588 16.3731 205.694 16.5527C205.794 16.714 205.858 16.8941 205.883 17.0815C205.893 17.1645 205.885 17.2488 205.859 17.3284C205.833 17.408 205.79 17.4811 205.732 17.5426C205.651 17.633 205.547 17.7007 205.431 17.7387C205.315 17.7767 205.191 17.7837 205.071 17.7589C204.796 17.7187 204.481 17.5444 204.125 17.236C203.834 16.9816 203.588 16.681 203.398 16.3466C203.212 16.0375 203.082 15.6997 203.011 15.3475L202.096 15.761C202.166 16.1609 202.318 16.5422 202.545 16.8809C202.799 17.2854 203.113 17.6504 203.476 17.964" fill="#B8875A"/>
<path fill-rule="evenodd" clip-rule="evenodd" d="M192.463 16.3906C195.249 16.9261 197.879 18.0658 200.163 19.7271L199.945 20.0073C199.872 20.0989 199.805 20.1907 199.739 20.282C197.527 18.6747 194.979 17.5751 192.281 17.0636L192.463 16.3906ZM185.252 17.0641C182.553 17.5756 180.005 18.6753 177.794 20.283C177.728 20.1909 177.66 20.0991 177.588 20.0074L177.37 19.7271C179.654 18.0659 182.283 16.9262 185.069 16.3906L185.252 17.0641ZM202.929 22.175C205.357 24.7816 206.997 28.0063 207.663 31.484C208.328 34.9618 207.993 38.5538 206.696 41.8536C205.398 45.1535 203.19 48.0294 200.321 50.156C197.451 52.2827 194.036 53.5751 190.46 53.8871L190.555 53.1798C193.963 52.8537 197.212 51.6032 199.942 49.567C202.672 47.5308 204.777 44.7886 206.022 41.6448C207.268 38.5009 207.605 35.0783 206.997 31.7568C206.389 28.4353 204.86 25.3449 202.578 22.8284C202.703 22.6179 202.82 22.4001 202.929 22.175ZM187.073 53.8871C183.497 53.5754 180.081 52.2831 177.211 50.1565C174.342 48.0299 172.133 45.1539 170.836 41.8539C169.538 38.554 169.204 34.9618 169.869 31.484C170.535 28.0062 172.175 24.7815 174.603 22.175C174.712 22.4006 174.83 22.6179 174.954 22.8289C172.673 25.3453 171.144 28.4358 170.536 31.7572C169.928 35.0787 170.265 38.5012 171.511 41.645C172.756 44.7888 174.861 47.531 177.591 49.5671C180.321 51.6032 183.57 52.8537 186.977 53.1798L187.073 53.8871Z" fill="#B8875A"/>
<path fill-rule="evenodd" clip-rule="evenodd" d="M176.6 35C176.596 32.3979 177.454 29.8658 179.044 27.7887C179.326 28.1507 179.612 28.5102 179.902 28.8673C178.766 30.4646 178.096 32.3379 177.963 34.2841C177.83 36.2303 178.24 38.1752 179.148 39.9081C179.024 40.0537 178.933 40.2247 178.884 40.4088C178.834 40.5929 178.827 40.7856 178.861 40.973C178.685 41.0426 178.529 41.1538 178.406 41.2967C177.225 39.4031 176.599 37.2233 176.6 35ZM198.244 35.0132C198.247 33.2229 197.725 31.4699 196.741 29.9652C195.058 31.9669 193.267 33.8778 191.376 35.6897L192.332 36.531C193.336 35.5308 194.787 34.0004 196.391 32.2016C196.786 33.2452 196.957 34.3584 196.892 35.4705C196.828 36.5826 196.529 37.6694 196.016 38.6618C196.17 38.7239 196.311 38.8155 196.429 38.9315C196.547 39.0475 196.64 39.1855 196.703 39.3374C196.875 39.2204 197.075 39.1502 197.282 39.1338C197.937 37.8575 198.267 36.4434 198.244 35.0133M197.882 44.8632C198.231 45.1443 198.58 45.4253 198.928 45.7064C197.472 47.206 195.553 48.1203 193.294 48.5981C193.228 48.4078 193.162 48.2174 193.097 48.0271C194.863 47.2495 196.482 46.1794 197.882 44.8632ZM201.034 43.2792C202.868 40.6363 203.775 37.4737 203.614 34.2751C203.453 31.0764 202.234 28.0177 200.143 25.5667C199.879 25.939 199.61 26.3089 199.336 26.6763C201.17 28.9405 202.206 31.7317 202.288 34.628C202.37 37.5244 201.494 40.3683 199.791 42.7298L201.034 43.2792ZM199.059 43.1293C198.647 43.61 197.824 43.6047 197.251 43.4988C198.249 44.2071 199.406 44.9849 200.449 45.6615C200.896 45.9508 201.08 45.863 201.384 45.4383C201.655 45.0586 201.675 44.8433 201.265 44.5744C200.53 44.0922 199.798 43.6037 199.059 43.1293M197.943 41.9011C197.412 42.0331 196.896 42.1311 196.683 42.7271C197.12 43.0587 197.7 43.0739 198.227 42.9434C198.754 42.8129 198.473 41.7694 197.943 41.9011ZM196.929 40.0777C196.502 40.5304 196.104 41.0042 196.275 41.7087C196.904 41.7598 197.472 41.4179 197.897 40.9695C198.321 40.5212 197.356 39.626 196.929 40.0777M195.06 43.0464C193.839 43.2657 193.71 41.7318 195.033 41.8113C195.474 41.8215 195.896 41.9924 196.217 42.291C195.971 42.7688 195.566 42.9551 195.06 43.0464ZM194.94 39.6692C195.034 39.1094 196.232 39.3101 196.139 39.8659C196.046 40.4216 195.788 40.9672 195.281 41.2433C194.788 40.7906 194.847 40.2288 194.94 39.6697M194.376 39.7196C194.317 40.2038 194.327 40.7851 194.52 41.2403C194.447 41.2511 194.376 41.2726 194.309 41.3041C194.008 41.0701 193.569 40.7204 193.269 40.4815C192.418 41.3257 191.602 41.7952 191.325 41.5581C191.051 41.3256 191.392 40.476 192.101 39.5349C191.514 39.0978 190.662 38.3631 189.643 37.4183L190.574 36.5566L190.583 36.5467C191.355 37.23 192.142 37.9024 192.944 38.5638C193.81 37.6912 194.65 37.2016 194.933 37.4414C195.212 37.6787 194.854 38.5544 194.12 39.5139L194.376 39.7196ZM200.943 35.0125C200.944 37.2361 200.319 39.4164 199.137 41.3105C199.015 41.1673 198.858 41.0559 198.682 40.9858C198.717 40.7985 198.71 40.6059 198.66 40.4218C198.611 40.2378 198.52 40.0669 198.396 39.9213C199.304 38.1882 199.713 36.2433 199.58 34.2971C199.447 32.3509 198.776 30.4777 197.641 28.8804C197.931 28.5238 198.217 28.1643 198.499 27.8018C200.089 29.8787 200.947 32.4106 200.943 35.0125ZM195.624 43.6423C195.026 43.8356 194.247 43.9646 193.788 43.4424L193.049 44.7806L193.515 41.9875L193.049 41.5629C192.692 41.9199 192.238 42.1683 191.741 42.2786L192.116 46.579C192.372 46.6472 192.628 46.7149 192.884 46.7821L195.624 43.6423ZM187.286 39.7195C186.982 41.4462 188.955 43.268 188.147 44.0122C185.8 46.1744 188.689 48.1296 188.209 48.7169C186.755 50.4985 188.744 52.2869 188.744 54.5282C189.493 53.3342 188.224 51.1857 189.28 49.8932C190.922 47.8825 188.258 46.4007 189.341 45.4024C190.188 44.6225 190.389 43.953 190.296 43.3505C190.033 41.6627 188.511 40.9489 190.182 39.7196L188.762 38.3178L187.305 39.6127C187.298 39.6481 187.292 39.6839 187.286 39.7196M184.24 48.5977C184.302 48.4094 184.37 48.2117 184.437 48.0267C182.732 47.2605 180.978 46.1961 179.694 44.828C179.331 45.1208 178.968 45.4135 178.605 45.706C180.125 47.2547 182.12 48.1705 184.239 48.5977M191.129 23.8889L189.941 23.4204L189.968 23.3228L190.019 23.3306C190.766 23.4479 191.509 22.9907 191.612 22.2407L189.864 22.1338L189.859 22.0318L189.91 22.0239C191.185 21.8326 192.2 21.1041 192.048 19.7528C191.33 20.3898 190.152 20.5829 189.24 20.732C188.741 20.8134 188.238 20.8865 187.737 20.962L187.499 21.2936L184.913 21.682L185.55 23.1457L187.847 22.5861C188.027 22.5698 188.206 22.6227 188.346 22.7338C188.487 22.8448 188.579 23.0053 188.602 23.1815C188.628 23.3536 188.584 23.5289 188.48 23.6691C188.375 23.8092 188.218 23.9027 188.044 23.9291L185.886 24.2528L185.907 25.5766L188.244 25.227C188.74 25.1528 189.189 24.8965 189.502 24.5093L189.526 24.4804L189.562 24.4902C189.854 24.5703 190.165 24.555 190.447 24.4465C190.73 24.338 190.969 24.1422 191.129 23.8884M179.299 35C179.276 36.4301 179.606 37.8442 180.261 39.1204C180.468 39.1371 180.668 39.2073 180.839 39.324C180.903 39.1722 180.996 39.0343 181.114 38.9184C181.232 38.8025 181.372 38.7108 181.527 38.6486C181.013 37.6562 180.715 36.5696 180.651 35.4575C180.586 34.3455 180.757 33.2324 181.152 32.1889C182.756 33.9873 184.207 35.5176 185.211 36.5177L186.167 35.6765C184.276 33.8645 182.485 31.9538 180.802 29.9525C179.818 31.4571 179.296 33.2099 179.299 35ZM189.309 15.9903C189.389 16.0393 189.456 16.1071 189.503 16.1877C189.551 16.2684 189.577 16.3593 189.58 16.4524C189.582 16.5268 189.567 16.6007 189.537 16.6688C189.507 16.737 189.461 16.7976 189.404 16.8463C189.002 17.2417 189.32 17.5016 189.759 17.5457C190.147 17.5839 190.382 17.3936 190.096 17.0268C190.048 16.9743 190.014 16.9109 189.996 16.8422C189.979 16.7735 189.978 16.7016 189.996 16.6329C190.025 16.5457 190.079 16.4687 190.152 16.4113C190.224 16.3538 190.312 16.3184 190.405 16.3092C190.475 16.0516 190.8 15.9128 191.13 16.0006C190.915 16.7915 190.7 17.5823 190.485 18.3728C189.349 18.1575 188.183 18.1575 187.047 18.3728C186.832 17.5819 186.617 16.7911 186.403 16.0006C186.732 15.9131 187.057 16.0515 187.128 16.3092C187.221 16.3183 187.309 16.3537 187.381 16.4112C187.454 16.4687 187.508 16.5457 187.537 16.6329C187.554 16.7016 187.554 16.7735 187.536 16.8422C187.519 16.911 187.485 16.9743 187.436 17.0268C187.119 17.4339 187.429 17.5782 187.814 17.5418C188.254 17.4996 188.496 17.2087 188.129 16.8467C188.072 16.7981 188.027 16.7375 187.996 16.6693C187.966 16.6012 187.951 16.5272 187.953 16.4528C187.956 16.3596 187.982 16.2686 188.03 16.188C188.077 16.1073 188.144 16.0395 188.224 15.9907C188.224 15.8489 188.281 15.7129 188.383 15.6126C188.485 15.5124 188.623 15.4561 188.767 15.4561C188.91 15.4561 189.048 15.5124 189.15 15.6126C189.252 15.7129 189.309 15.8489 189.309 15.9907M193.742 28.5429C195.252 26.9011 196.549 25.2171 197.979 23.5022C197.647 23.2432 197.305 22.9984 196.952 22.7709C195.912 24.7012 194.783 26.6127 193.742 28.543M183.789 28.5336C182.75 26.603 181.621 24.6909 180.58 22.7609C180.227 22.989 179.885 23.2332 179.554 23.4933C180.983 25.2076 182.28 26.8916 183.79 28.5334M185.228 29.7843C185.9 27.1722 188.058 27.0962 188.544 25.7198C188.92 27.1615 187.014 27.8595 186.914 29.5316L188.767 31.3584L190.538 29.612C189.023 28.452 189.627 26.8185 189.914 25.2522C190.484 25.1781 190.982 25.0173 191.384 24.6056C191.189 26.4191 190.046 28.1006 192.496 29.5973C191.253 30.8226 190.01 32.0479 188.767 33.2733C187.587 32.1102 186.408 30.9472 185.228 29.7841M181.909 43.6423C182.508 43.8356 183.286 43.9646 183.745 43.4424L184.484 44.7806L184.018 41.9875L184.484 41.5629C184.842 41.92 185.295 42.1684 185.791 42.2786L185.417 46.579C185.161 46.6472 184.905 46.7149 184.649 46.7821L181.909 43.6423ZM176.5 43.2788L177.742 42.7293C176.039 40.3678 175.163 37.5239 175.245 34.6275C175.327 31.7312 176.363 28.94 178.197 26.6758C177.923 26.3084 177.655 25.9385 177.39 25.5662C175.299 28.0171 174.08 31.0758 173.919 34.2745C173.758 37.4733 174.665 40.636 176.5 43.2788ZM178.474 43.1288C178.887 43.6095 179.709 43.6042 180.282 43.4983C179.284 44.2066 178.126 44.9844 177.084 45.661C176.637 45.9503 176.453 45.8625 176.149 45.4378C175.878 45.0581 175.858 44.8428 176.269 44.5739C177.003 44.0917 177.734 43.6032 178.474 43.1288ZM179.591 41.9006C180.122 42.0326 180.637 42.1306 180.851 42.7266C180.414 43.0582 179.833 43.0734 179.305 42.9429C178.777 42.8124 179.059 41.7689 179.59 41.9006M180.604 40.0772C180.176 39.6255 179.211 40.5207 179.636 40.969C180.061 41.4174 180.629 41.7593 181.257 41.7082C181.429 41.0039 181.031 40.53 180.603 40.0772M182.472 43.0459C183.693 43.2652 183.822 41.7313 182.499 41.8108C182.058 41.8213 181.636 41.9921 181.315 42.2905C181.561 42.7683 181.966 42.9546 182.472 43.0459ZM182.592 39.6687C182.685 40.2284 182.745 40.7901 182.251 41.2423C181.744 40.9662 181.486 40.4206 181.392 39.8649C181.299 39.3091 182.498 39.1084 182.592 39.6682M183.157 39.7181C183.215 40.2023 183.205 40.7836 183.012 41.2388C183.085 41.2497 183.157 41.2712 183.224 41.3026C183.524 41.0686 183.964 40.7189 184.264 40.48C185.114 41.3242 185.93 41.7937 186.207 41.5566C186.482 41.3241 186.14 40.4745 185.431 39.5334C186.334 38.8609 187.864 37.4835 189.666 35.7216L190.363 35.077C193.057 32.4888 201.953 23.34 202.089 19.8102C197.678 25.4719 194.651 29.3098 189.465 34.2519L188.766 34.8931L188.067 34.2519C182.882 29.3098 179.855 25.4722 175.443 19.8102C175.58 23.34 184.429 32.5326 187.123 35.1215L187.819 35.766C186.771 36.7187 185.694 37.6512 184.589 38.5635C183.722 37.691 182.883 37.2014 182.6 37.4412C182.322 37.6785 182.679 38.5542 183.413 39.5137L183.157 39.7181Z" fill="#B8875A"/>
</g>
</g>
<defs>
<clipPath id="clip0_2_21335">
<rect width="40" height="40" fill="white" transform="matrix(0 -1 1 0 101.266 55)"/>
</clipPath>
<clipPath id="clip1_2_21335">
<rect width="71" height="70" fill="white" transform="translate(153.266)"/>
</clipPath>
</defs>
</svg>
