<svg width="40" height="39" viewBox="0 0 40 39" fill="none" xmlns="http://www.w3.org/2000/svg">
<g clip-path="url(#clip0_2_21264)">
<mask id="mask0_2_21264" style="mask-type:luminance" maskUnits="userSpaceOnUse" x="0" y="0" width="40" height="39">
<path d="M40 0H0V39H40V0Z" fill="white"/>
</mask>
<g mask="url(#mask0_2_21264)">
<path fill-rule="evenodd" clip-rule="evenodd" d="M20.0001 0C31.0457 0 40 8.73044 40 19.5001C40 30.2698 31.0457 39 20.0001 39C8.95458 39 0 30.2696 0 19.5001C0 8.73071 8.95429 0 20.0001 0Z" fill="#040505"/>
<path fill-rule="evenodd" clip-rule="evenodd" d="M21.6236 1.25006C25.9548 1.61602 30.0218 3.43491 33.1316 6.39681C36.2415 9.35871 38.2017 13.2803 38.6784 17.4935C39.1551 21.7066 38.1187 25.9505 35.7458 29.5021C33.3728 33.0537 29.8103 35.6932 25.6651 36.9708C21.5199 38.2484 17.0486 38.0851 13.0131 36.5087C8.97752 34.9323 5.62747 32.0404 3.53373 28.3256C1.43999 24.6109 0.732124 20.3033 1.53074 16.1367C2.32936 11.9702 4.58506 8.20252 7.91346 5.47577C9.80051 3.92549 11.9832 2.7541 14.336 2.02891C16.6889 1.30373 19.1655 1.03904 21.6236 1.25006ZM34.0812 7.9646C31.3439 4.78753 27.5614 2.63415 23.3783 1.87139C19.1951 1.10863 14.8701 1.78368 11.1403 3.78153C7.41038 5.77937 4.50639 8.97638 2.92312 12.8278C1.33985 16.6792 1.17527 20.9468 2.45741 24.9033C3.73955 28.8598 6.38909 32.2604 9.95456 34.5257C13.52 36.791 17.7808 37.7808 22.0109 37.3265C26.241 36.8722 30.1786 35.0019 33.1529 32.0342C36.1271 29.0665 37.954 25.1851 38.3221 21.0514C38.5344 18.7051 38.269 16.3411 37.5412 14.0951C36.8134 11.8491 35.6375 9.76556 34.0811 7.96411" fill="#B8875A"/>
<path fill-rule="evenodd" clip-rule="evenodd" d="M9.87075 28.9898L9.54561 29.3029L10.1079 29.858L9.87952 30.0783L9.31724 29.523L8.86907 29.9544L8.58789 29.6764L9.81815 28.4922L10.736 29.399L10.5077 29.619L9.87075 28.9898ZM10.6321 31.5192C10.7643 31.6211 10.921 31.6887 11.0873 31.7157C11.245 31.7408 11.4067 31.7237 11.5552 31.6663C11.7037 31.6088 11.8333 31.513 11.9303 31.3893C12.0274 31.2655 12.0881 31.1184 12.106 30.9636C12.1239 30.8088 12.0983 30.6522 12.032 30.5104C11.959 30.3625 11.8512 30.2334 11.7175 30.1337C11.5837 30.0339 11.4276 29.9664 11.262 29.9365C11.106 29.9105 10.9457 29.927 10.7986 29.9841C10.6503 30.0445 10.5208 30.1419 10.4231 30.2664C10.3254 30.391 10.263 30.5383 10.242 30.6938C10.224 30.847 10.2498 31.0021 10.3166 31.142C10.3875 31.2915 10.4958 31.4213 10.6316 31.5194M10.8386 31.2554C10.7608 31.1991 10.6997 31.1238 10.6615 31.037C10.6246 30.9529 10.6126 30.8605 10.6267 30.7701C10.6437 30.6742 10.6842 30.5838 10.7448 30.5065C10.8053 30.4292 10.8842 30.3674 10.9745 30.3262C11.0603 30.2892 11.155 30.2762 11.2479 30.2888C11.3433 30.3033 11.4335 30.341 11.5103 30.3982C11.5871 30.4554 11.6479 30.5304 11.6874 30.6164C11.7242 30.7005 11.7363 30.793 11.7224 30.8834C11.7055 30.9792 11.6651 31.0697 11.6045 31.147C11.544 31.2243 11.4652 31.2862 11.3748 31.3274C11.289 31.3643 11.1944 31.3772 11.1015 31.3645C11.0057 31.3515 10.9152 31.3138 10.8392 31.2555M12.71 32.8234C12.5616 32.7446 12.4359 32.6307 12.3445 32.4922C12.2586 32.3627 12.211 32.2126 12.2068 32.0585C12.2055 31.9017 12.2464 31.7473 12.3254 31.6108C12.4045 31.4742 12.5189 31.3603 12.6573 31.2804C12.7948 31.204 12.9514 31.1662 13.1096 31.171C13.2779 31.1782 13.4421 31.224 13.5888 31.3047C13.7354 31.3854 13.8605 31.4987 13.9539 31.6354C14.0397 31.7668 14.0872 31.9185 14.0915 32.0742C14.0957 32.23 14.0565 32.3839 13.9779 32.5196C13.8994 32.6553 13.7846 32.7677 13.6456 32.8447C13.5067 32.9216 13.349 32.9604 13.1892 32.9568C13.0205 32.9522 12.8557 32.9063 12.71 32.8234ZM12.8776 32.534C12.9612 32.5815 13.0562 32.6066 13.1529 32.6067C13.2467 32.6068 13.3387 32.5812 13.4184 32.5329C13.5021 32.4799 13.5715 32.408 13.6206 32.3231C13.6696 32.2383 13.6969 32.1432 13.7 32.0459C13.7011 31.9545 13.6761 31.8646 13.6277 31.7863C13.5764 31.7064 13.5054 31.6403 13.4212 31.594C13.337 31.5477 13.2423 31.5227 13.1456 31.5212C13.0519 31.5214 12.9601 31.5471 12.8804 31.5952C12.7967 31.6481 12.7273 31.72 12.6783 31.8047C12.6292 31.8894 12.6019 31.9844 12.5987 32.0816C12.5977 32.1731 12.6229 32.263 12.6713 32.3413C12.7215 32.422 12.7926 32.4884 12.8776 32.5336M15.0107 32.3115L14.4933 32.1202L14.6087 31.8232L16.0178 32.3438L15.9021 32.6411L15.3849 32.4498L14.8876 33.7288L14.5134 33.5906L15.0107 32.3115ZM17.4165 33.4747C17.492 33.4551 17.5604 33.4157 17.6144 33.3607C17.6686 33.3045 17.7055 33.2346 17.7207 33.1589C17.7358 33.0976 17.7349 33.0336 17.718 32.9728C17.701 32.912 17.6686 32.8563 17.6237 32.811C17.5303 32.7115 17.3805 32.6402 17.1741 32.597L16.348 32.4254L15.9879 34.0739L16.8621 34.2556C17.0828 34.3016 17.2592 34.2976 17.3914 34.2439C17.4551 34.219 17.5111 34.1787 17.5541 34.1266C17.5971 34.0745 17.6257 34.0125 17.637 33.9466C17.6603 33.8547 17.6513 33.7578 17.6112 33.6716C17.5693 33.5877 17.5012 33.5188 17.4166 33.4749M16.6745 32.7935L17.0633 32.8745C17.1409 32.8855 17.2136 32.9181 17.2726 32.9685C17.2935 32.9892 17.3085 33.015 17.316 33.0431C17.3235 33.0713 17.3233 33.1008 17.3155 33.1289C17.3107 33.1578 17.2984 33.1851 17.2796 33.2079C17.2609 33.2308 17.2363 33.2485 17.2084 33.2593C17.1335 33.2824 17.0533 33.2837 16.9777 33.2631L16.5889 33.1822L16.6745 32.7935ZM16.8962 33.9625L16.4395 33.8674L16.5286 33.4602L16.9849 33.555C17.1929 33.5982 17.2819 33.6881 17.252 33.8248C17.2475 33.8552 17.2347 33.8839 17.215 33.908C17.1953 33.932 17.1694 33.9504 17.1399 33.9614C17.0603 33.9841 16.9758 33.9845 16.896 33.9626M19.3762 34.1897L18.5743 34.1561L18.4053 34.5105L17.9958 34.4935L18.8397 32.8415L19.2347 32.8579L19.9329 34.5744L19.5133 34.5567L19.3762 34.1897ZM19.2634 33.888L19.0176 33.2315L18.7154 33.8647L19.2634 33.888ZM20.341 32.9099L20.7396 32.8735L20.8694 34.2357L21.7325 34.1575L21.7628 34.474L20.5011 34.5882L20.341 32.9099ZM22.0609 32.7429L22.4545 32.6733L22.7048 34.0193L23.5577 33.8684L23.6158 34.181L22.3692 34.4013L22.0609 32.7429ZM25.6589 33.5595C25.5055 33.6226 25.3384 33.647 25.1728 33.6305C25.0165 33.6153 24.8675 33.5585 24.7421 33.4662C24.6152 33.3687 24.5165 33.2407 24.4559 33.0947C24.3952 32.9487 24.3746 32.7898 24.3962 32.6337C24.4201 32.4821 24.4864 32.3399 24.588 32.2227C24.6957 32.0981 24.834 32.0019 24.9899 31.9431C25.1183 31.8902 25.2566 31.8639 25.396 31.8657C25.5246 31.8682 25.6508 31.9002 25.7643 31.9592L25.6152 32.2677C25.5423 32.2289 25.4614 32.2066 25.3785 32.2024C25.2956 32.1982 25.2128 32.2123 25.1362 32.2436C25.0429 32.2787 24.9605 32.3368 24.8971 32.4122C24.8378 32.4838 24.8003 32.5701 24.7889 32.6615C24.7792 32.7583 24.7938 32.856 24.8313 32.9462C24.8688 33.0364 24.9281 33.1164 25.0042 33.1794C25.0776 33.2373 25.1662 33.2738 25.2599 33.2848C25.3592 33.296 25.4599 33.2817 25.552 33.2436C25.6294 33.214 25.699 33.1676 25.7555 33.1079C25.8119 33.0483 25.8537 32.9769 25.8777 32.8992L26.2048 33.0192C26.1667 33.1399 26.0989 33.2498 26.0075 33.3393C25.9082 33.4354 25.7897 33.5106 25.6594 33.5601M26.0778 31.5075L26.8985 32.9915L28.0136 32.405L27.8592 32.1251L27.0956 32.5266L26.4299 31.3225L26.0778 31.5075ZM29.1547 31.6862C28.9538 31.8262 28.7577 31.881 28.5664 31.8508C28.3751 31.8205 28.2057 31.7048 28.0579 31.5034L27.4942 30.736L27.8196 30.5088L28.3746 31.2648C28.5548 31.5102 28.7493 31.56 28.9582 31.4143C29.0035 31.387 29.042 31.3503 29.071 31.3068C29.0999 31.2633 29.1187 31.214 29.1258 31.1626C29.1359 31.0661 29.0944 30.9545 29.0014 30.8276L28.4467 30.0717L28.7682 29.8476L29.3313 30.6152C29.4788 30.8161 29.5365 31.0098 29.5045 31.1962C29.4725 31.3827 29.3559 31.546 29.1548 31.6862M30.6328 29.2189C30.6576 29.1467 30.6614 29.0693 30.6441 28.995C30.6255 28.9201 30.5857 28.8517 30.5292 28.7977C30.4851 28.7517 30.4297 28.7172 30.3683 28.6977C30.3069 28.6781 30.2414 28.674 30.1779 28.6857C30.0411 28.707 29.8977 28.7898 29.7476 28.9341L29.1464 29.5127L30.3609 30.7124L30.9975 30.0997C31.1579 29.9453 31.2514 29.7994 31.2781 29.6622C31.2918 29.5967 31.2879 29.5289 31.2669 29.4653C31.2459 29.4017 31.2084 29.3444 31.1582 29.299C31.0923 29.2294 31.0043 29.1835 30.9084 29.1689C30.8134 29.1569 30.717 29.1744 30.6328 29.2189ZM29.6409 29.4495L29.924 29.1771C29.9761 29.1201 30.0439 29.0788 30.1194 29.0582C30.1486 29.0524 30.179 29.0543 30.2073 29.0636C30.2355 29.0729 30.2608 29.0893 30.2805 29.1112C30.3027 29.1309 30.3193 29.1559 30.3286 29.1837C30.3379 29.2116 30.3397 29.2413 30.3338 29.27C30.3124 29.3437 30.2695 29.4097 30.2102 29.4599L29.9273 29.7321L29.6409 29.4495ZM30.7643 29.9111L30.4322 30.2312L30.1319 29.9347L30.4641 29.6146C30.6152 29.4692 30.7411 29.4462 30.8419 29.5454C30.8655 29.5658 30.8831 29.592 30.8928 29.6213C30.9026 29.6506 30.9042 29.6818 30.8974 29.7119C30.873 29.7891 30.8268 29.8581 30.7642 29.9111" fill="#B8875A"/>
<path fill-rule="evenodd" clip-rule="evenodd" d="M12.2427 8.81633L12.6031 9.23938L10.5679 10.8876L10.2828 10.5531L10.5143 8.64955C10.5406 8.48207 10.5383 8.3115 10.5076 8.14474C10.4815 8.03188 10.4292 7.92638 10.3546 7.83643C10.3113 7.77902 10.2547 7.73249 10.1893 7.70069C10.1239 7.66889 10.0517 7.65274 9.97869 7.65357C9.8352 7.65714 9.67927 7.72712 9.5109 7.86349C9.22948 8.09116 9.09363 8.35935 9.10333 8.66806L8.515 8.68963C8.50434 8.45294 8.55801 8.2177 8.67057 8.00773C8.79607 7.77034 8.97109 7.56116 9.1844 7.39362C9.48413 7.15092 9.78246 7.0263 10.0794 7.01976C10.2237 7.01574 10.3669 7.04518 10.4973 7.10566C10.6276 7.16615 10.7414 7.25594 10.8292 7.36766C10.9514 7.50932 11.0389 7.67624 11.0851 7.85577C11.1329 8.09738 11.1365 8.34534 11.0958 8.58818L10.9413 9.8702L12.2427 8.81633ZM12.8582 4.99023L14.3348 4.47234C14.6647 4.34977 15.0194 4.30449 15.3705 4.34013C15.6875 4.37294 15.9879 4.49452 16.2355 4.6902C16.4896 4.8963 16.68 5.16705 16.7858 5.47235C16.9036 5.77336 16.9337 6.10031 16.8728 6.41698C16.8096 6.72159 16.6575 7.0019 16.4346 7.22412C16.1873 7.46965 15.8841 7.65502 15.5497 7.76525L14.0734 8.28341L12.8582 4.99023ZM15.3299 7.25856C15.5579 7.1841 15.7644 7.05792 15.9326 6.89041C16.0825 6.74004 16.183 6.54943 16.221 6.34302C16.2584 6.12482 16.235 5.90087 16.1535 5.69445C16.0815 5.48489 15.9533 5.29788 15.7824 5.15277C15.6181 5.01722 15.4161 4.93244 15.2022 4.90924C14.9632 4.88475 14.7216 4.91575 14.4972 4.99969L13.6765 5.28748L14.5097 7.54607L15.3299 7.25856ZM20.1587 6.99262L19.4014 5.98419C19.3705 5.98801 19.3246 5.99073 19.2632 5.9924L18.4531 6.01042L18.477 7.03006L17.8107 7.04509L17.7277 3.54608L19.2043 3.51275C19.4828 3.50038 19.7608 3.54526 20.0203 3.64447C20.2393 3.72824 20.4277 3.87373 20.5615 4.06237C20.6928 4.25896 20.7623 4.48875 20.7613 4.72339C20.7737 4.96414 20.7105 5.20286 20.5802 5.40771C20.4457 5.60628 20.2512 5.75917 20.0236 5.84524L20.8762 6.97641L20.1587 6.99262ZM20.09 4.73821C20.0936 4.64108 20.0739 4.54447 20.0326 4.45602C19.9913 4.36756 19.9295 4.28968 19.852 4.22853C19.6987 4.11182 19.4768 4.0568 19.1863 4.06348L18.4071 4.08095L18.4401 5.47555L19.2197 5.45809C19.5099 5.45155 19.7289 5.38577 19.8767 5.26076C19.951 5.19543 20.0088 5.11433 20.0458 5.02372C20.0828 4.93311 20.0979 4.83542 20.09 4.73821ZM22.8899 7.35444C22.5515 7.29035 22.2351 7.14408 21.97 6.92916C21.72 6.72616 21.5323 6.45984 21.4276 6.15953C21.3213 5.85237 21.3034 5.52268 21.3757 5.20628C21.4396 4.88816 21.5917 4.59322 21.8156 4.35356C22.0348 4.11939 22.3162 3.94886 22.6287 3.86079C22.9607 3.77228 23.3095 3.76197 23.6464 3.83072C23.9833 3.89947 24.2986 4.04531 24.5664 4.25622C24.8158 4.4587 25.0034 4.72405 25.1088 5.02335C25.2156 5.33115 25.2335 5.66171 25.1604 5.97876C25.0968 6.29787 24.9445 6.5938 24.72 6.83419C24.5002 7.0671 24.2191 7.23668 23.9072 7.32445C23.576 7.41783 23.226 7.42807 22.8897 7.35423M23.0096 6.7964C23.2299 6.84474 23.4593 6.83608 23.675 6.77129C23.8821 6.7083 24.067 6.59039 24.2093 6.43076C24.3582 6.26385 24.4594 6.06167 24.5027 5.84454C24.5523 5.62865 24.5428 5.40384 24.475 5.19271C24.4104 4.9909 24.2896 4.81056 24.126 4.67183C23.953 4.53093 23.7472 4.4337 23.5265 4.38871C23.3059 4.34371 23.0774 4.35234 22.861 4.41382C22.654 4.47664 22.4691 4.59447 22.327 4.75407C22.178 4.92093 22.0767 5.12312 22.0333 5.34029C21.9837 5.55617 21.9932 5.78099 22.061 5.99212C22.1256 6.19393 22.2464 6.37427 22.41 6.513C22.5811 6.65679 22.7877 6.75449 23.0095 6.7964M27.1145 5.67073L26.058 5.13836L26.3172 4.64998L29.0227 6.01453L28.7637 6.50291L27.707 5.96999L26.3167 8.59033L25.7243 8.29162L27.1145 5.67073ZM28.2868 10.0079C28.4872 10.1897 28.7238 10.3295 28.9819 10.4184C29.1815 10.488 29.3974 10.4999 29.6037 10.4526C29.7892 10.4055 29.9556 10.3043 30.0807 10.1627C30.2217 10.0226 30.3036 9.83616 30.3103 9.6401C30.3102 9.46405 30.2666 9.29062 30.1831 9.13453C30.075 8.9385 29.9528 8.75017 29.8175 8.57092C29.7029 8.41024 29.6157 8.27977 29.556 8.17953C29.5 8.09011 29.4632 7.99052 29.4478 7.8868C29.4414 7.84098 29.4456 7.79435 29.46 7.75029C29.4744 7.70623 29.4987 7.66585 29.5311 7.63207C29.577 7.57981 29.6358 7.53994 29.7021 7.5163C29.7683 7.49266 29.8397 7.48604 29.9093 7.49708C30.064 7.51457 30.2403 7.60823 30.438 7.77805C30.5637 7.88714 30.6733 8.01267 30.7637 8.15107C30.8611 8.29767 30.9386 8.45593 30.9944 8.62192L31.4944 8.37839C31.4401 8.19024 31.3535 8.01238 31.2385 7.85229C31.1161 7.67638 30.9715 7.51624 30.808 7.37566C30.6082 7.19425 30.3721 7.05514 30.1145 6.96709C29.9148 6.8983 29.6989 6.88766 29.4931 6.93647C29.3069 6.98449 29.14 7.08612 29.0141 7.22808C28.8717 7.36982 28.7883 7.55789 28.7797 7.75606C28.7784 7.93162 28.8215 8.10479 28.905 8.26031C29.0157 8.45796 29.1392 8.64854 29.2747 8.83087C29.3894 8.99156 29.4766 9.12193 29.5363 9.22199C29.5926 9.31183 29.6288 9.4122 29.6428 9.51659C29.6486 9.56286 29.644 9.6098 29.6293 9.65416C29.6147 9.69852 29.5903 9.73924 29.5579 9.77348C29.5123 9.82388 29.4538 9.86159 29.3884 9.88276C29.323 9.90393 29.253 9.90781 29.1856 9.894C29.0306 9.87159 28.853 9.77448 28.6527 9.60266C28.4887 9.46095 28.3501 9.29348 28.2427 9.10718C28.1383 8.93493 28.0646 8.74674 28.0246 8.55053L27.5094 8.78092C27.5486 9.00369 27.6347 9.21613 27.7622 9.40485C27.9055 9.63019 28.0822 9.83355 28.2867 10.0083" fill="#B8875A"/>
<path fill-rule="evenodd" clip-rule="evenodd" d="M22.083 9.13184C23.6524 9.43019 25.1342 10.0652 26.4208 10.9908L26.2978 11.1468C26.2572 11.1979 26.2193 11.249 26.1821 11.2999C24.936 10.4044 23.5004 9.79179 21.9803 9.50681L22.083 9.13184ZM18.0201 9.50708C16.4999 9.79201 15.0644 10.4048 13.8184 11.3005C13.7815 11.2491 13.743 11.198 13.7027 11.1469L13.5796 10.9908C14.8662 10.0652 16.3479 9.43021 17.9173 9.13184L18.0201 9.50708ZM27.9793 12.3545C29.3472 13.8068 30.271 15.6034 30.646 17.541C31.021 19.4786 30.8324 21.4799 30.1014 23.3184C29.3704 25.1568 28.1263 26.7592 26.5097 27.944C24.8932 29.1288 22.9688 29.8489 20.9544 30.0228L21.0082 29.6286C22.9278 29.447 24.7582 28.7502 26.2964 27.6158C27.8345 26.4814 29.0202 24.9536 29.7218 23.202C30.4234 21.4504 30.6135 19.5435 30.2711 17.693C29.9286 15.8425 29.0669 14.1206 27.7817 12.7186C27.8518 12.6013 27.9176 12.48 27.9793 12.3545ZM19.0461 30.0228C17.0315 29.8491 15.107 29.1291 13.4904 27.9443C11.8738 26.7594 10.6295 25.1571 9.89853 23.3185C9.16751 21.48 8.9789 19.4787 9.35402 17.541C9.72914 15.6034 10.653 13.8068 12.0211 12.3545C12.0825 12.4803 12.1487 12.6013 12.2187 12.7189C10.9335 14.1209 10.0719 15.8427 9.72942 17.6932C9.38697 19.5437 9.5771 21.4506 10.2787 23.2021C10.9803 24.9537 12.166 26.4815 13.7041 27.6159C15.2422 28.7503 17.0727 29.447 18.9923 29.6286L19.0461 30.0228Z" fill="#B8875A"/>
<path fill-rule="evenodd" clip-rule="evenodd" d="M13.1456 19.5001C13.1434 18.0504 13.6269 16.6396 14.5224 15.4824C14.6814 15.684 14.8425 15.8844 15.0059 16.0833C14.3662 16.9732 13.9884 18.0169 13.9135 19.1012C13.8387 20.1855 14.0697 21.2691 14.5814 22.2346C14.5112 22.3157 14.4602 22.411 14.4323 22.5136C14.4043 22.6162 14.4 22.7235 14.4197 22.8279C14.3204 22.8667 14.2323 22.9286 14.1632 23.0083C13.4975 21.9533 13.1452 20.7388 13.1456 19.5001ZM25.3394 19.5075C25.341 18.51 25.0469 17.5333 24.4925 16.695C23.5445 17.8102 22.5355 18.8749 21.47 19.8844L22.0085 20.3531C22.5741 19.7958 23.3917 18.9432 24.2954 17.941C24.518 18.5224 24.6141 19.1426 24.5778 19.7623C24.5414 20.3819 24.3734 20.9873 24.0843 21.5403C24.1712 21.5748 24.2502 21.6259 24.3167 21.6905C24.3831 21.7551 24.4357 21.832 24.4714 21.9166C24.568 21.8515 24.6806 21.8123 24.7977 21.8032C25.1665 21.0921 25.3523 20.3043 25.3393 19.5075M25.1358 24.9953C25.3323 25.1519 25.5286 25.3085 25.7249 25.4651C24.9043 26.3006 23.8236 26.81 22.5505 27.0762C22.5132 26.9701 22.4765 26.8641 22.4395 26.7581C23.4349 26.3248 24.3468 25.7286 25.1358 24.9953ZM26.9112 24.1128C27.9447 22.6403 28.4553 20.8783 28.3646 19.0962C28.274 17.3141 27.5873 15.61 26.4094 14.2444C26.2606 14.4518 26.109 14.6579 25.9547 14.8626C26.9879 16.1241 27.5717 17.6792 27.6179 19.2929C27.6641 20.9065 27.1702 22.491 26.2109 23.8067L26.9112 24.1128ZM25.7987 24.0293C25.5663 24.2971 25.1029 24.2941 24.7798 24.2351C25.3424 24.6298 25.9944 25.0631 26.5818 25.4401C26.8335 25.6013 26.9372 25.5524 27.1085 25.3157C27.2613 25.1042 27.2726 24.9842 27.0412 24.8344C26.6273 24.5658 26.2152 24.2936 25.7986 24.0293M25.1696 23.345C24.8705 23.4185 24.5798 23.4731 24.4599 23.8052C24.7059 23.9899 25.0331 23.9984 25.3299 23.9257C25.6268 23.853 25.4684 23.2716 25.1696 23.345ZM24.5987 22.3291C24.3579 22.5813 24.1339 22.8453 24.2304 23.2378C24.5847 23.2663 24.9048 23.0758 25.1438 22.826C25.3829 22.5762 24.8392 22.0774 24.5984 22.3291M23.5455 23.9831C22.8576 24.1053 22.7851 23.2507 23.5304 23.295C23.7789 23.3007 24.0164 23.3959 24.1972 23.5622C24.0588 23.8284 23.8306 23.9322 23.5455 23.9831ZM23.4782 22.1015C23.5309 21.7896 24.2062 21.9015 24.1538 22.2111C24.1014 22.5207 23.9559 22.8247 23.67 22.9785C23.3922 22.7263 23.4256 22.4133 23.4782 22.1018M23.1601 22.1296C23.1273 22.3994 23.1326 22.7232 23.2417 22.9768C23.2003 22.9829 23.1601 22.9949 23.1223 23.0124C22.953 22.882 22.7054 22.6872 22.5364 22.5541C22.0572 23.0244 21.5974 23.286 21.4413 23.1539C21.2868 23.0244 21.4794 22.551 21.8788 22.0267C21.5477 21.7832 21.0679 21.3738 20.4938 20.8474L21.0183 20.3673L21.0234 20.3618C21.4581 20.7425 21.9016 21.1171 22.3537 21.4856C22.8417 20.9995 23.3148 20.7267 23.4741 20.8603C23.6311 20.9925 23.4296 21.4804 23.0158 22.015L23.1601 22.1296ZM26.8599 19.507C26.8606 20.7459 26.5085 21.9607 25.8428 23.0159C25.7736 22.9362 25.6856 22.8741 25.5863 22.835C25.606 22.7307 25.6018 22.6234 25.5738 22.5208C25.5459 22.4183 25.495 22.3231 25.4249 22.242C25.9363 21.2764 26.1671 20.1928 26.0922 19.1085C26.0172 18.0242 25.6394 16.9805 24.9996 16.0906C25.163 15.892 25.3242 15.6916 25.4831 15.4897C26.3787 16.6468 26.8621 18.0574 26.8599 19.507ZM23.8633 24.3151C23.5263 24.4228 23.0877 24.4947 22.8292 24.2037L22.4126 24.9493L22.6752 23.3931L22.4126 23.1566C22.2113 23.3555 21.9556 23.4939 21.676 23.5553L21.8871 25.9513C22.0311 25.9893 22.1753 26.027 22.3196 26.0644L23.8633 24.3151ZM19.1659 22.1295C18.9947 23.0916 20.1064 24.1065 19.6512 24.5212C18.3285 25.7258 19.9562 26.8152 19.6857 27.1423C18.8666 28.135 19.9876 29.1314 19.9876 30.3801C20.4091 29.7149 19.6944 28.5178 20.2892 27.7977C21.2142 26.6775 19.7137 25.8519 20.3239 25.2957C20.801 24.8612 20.914 24.4882 20.8615 24.1525C20.7138 23.2121 19.8563 22.8145 20.7973 22.1296L19.9973 21.3486L19.1766 22.0701C19.1727 22.0897 19.169 22.1097 19.1659 22.1296M17.4496 27.076C17.4849 26.971 17.5231 26.8609 17.5606 26.7578C16.6 26.331 15.6119 25.7379 14.8888 24.9757C14.6842 25.1388 14.4796 25.3019 14.275 25.4649C15.1314 26.3277 16.2556 26.8379 17.4495 27.076M21.3307 13.3096L20.6617 13.0486L20.6771 12.9942L20.7056 12.9986C21.1267 13.0639 21.5452 12.8092 21.6029 12.3914L20.6181 12.3318L20.6156 12.275L20.6441 12.2706C21.3623 12.164 21.9341 11.7581 21.8488 11.0053C21.4443 11.3601 20.7803 11.4677 20.2668 11.5508C19.9854 11.5961 19.7023 11.6368 19.42 11.6789L19.2858 11.8637L17.8292 12.0801L18.188 12.8956L19.4821 12.5838C19.5832 12.5747 19.684 12.6042 19.7633 12.6661C19.8426 12.7279 19.8942 12.8173 19.9073 12.9155C19.9221 13.0114 19.8973 13.1091 19.8383 13.1872C19.7794 13.2652 19.6911 13.3173 19.5928 13.332L18.3774 13.5124L18.3889 14.2499L19.7055 14.0551C19.985 14.0138 20.2383 13.871 20.4144 13.6553L20.4276 13.6392L20.4484 13.6447C20.6129 13.6893 20.7878 13.6807 20.9469 13.6203C21.1059 13.5598 21.2407 13.4507 21.3308 13.3093M14.6662 19.5001C14.6531 20.2968 14.8391 21.0847 15.2081 21.7958C15.325 21.8051 15.4375 21.8442 15.534 21.9092C15.5698 21.8246 15.6225 21.7478 15.6889 21.6832C15.7554 21.6186 15.8343 21.5675 15.9211 21.5329C15.6321 20.98 15.464 20.3746 15.4277 19.755C15.3914 19.1355 15.4875 18.5153 15.71 17.9339C16.614 18.9359 17.4314 19.7885 17.997 20.3457L18.5354 19.877C17.4701 18.8675 16.4612 17.8029 15.5129 16.6879C14.9587 17.5262 14.6647 18.5027 14.6662 19.5001ZM20.3056 8.90899C20.3509 8.93626 20.3886 8.97405 20.4152 9.01898C20.4418 9.06391 20.4566 9.11458 20.4582 9.16644C20.4594 9.20788 20.4511 9.24907 20.434 9.28703C20.4169 9.32498 20.3914 9.35875 20.3592 9.3859C20.1327 9.60619 20.3119 9.75099 20.5591 9.77555C20.778 9.79684 20.91 9.6908 20.7491 9.48644C20.7219 9.4572 20.7026 9.42188 20.6927 9.38361C20.6828 9.34534 20.6828 9.30529 20.6925 9.26699C20.7089 9.21842 20.7394 9.17553 20.7803 9.14352C20.8212 9.11151 20.8708 9.09175 20.9229 9.08663C20.9625 8.94316 21.1455 8.86578 21.3314 8.9147C21.2106 9.35538 21.0895 9.79594 20.9681 10.2364C20.3284 10.1164 19.6712 10.1164 19.0315 10.2364C18.9101 9.79571 18.789 9.35515 18.6682 8.9147C18.8538 8.86599 19.0371 8.94309 19.077 9.08663C19.1291 9.09172 19.1786 9.11147 19.2195 9.14349C19.2604 9.17551 19.2908 9.21841 19.3071 9.26699C19.3169 9.30528 19.3169 9.34535 19.307 9.38363C19.2972 9.42192 19.2777 9.45723 19.2505 9.48644C19.0721 9.71328 19.2466 9.79364 19.4635 9.7734C19.711 9.74988 19.8478 9.58782 19.641 9.38611C19.6087 9.35902 19.5831 9.32526 19.5659 9.2873C19.5488 9.24934 19.5405 9.20812 19.5418 9.16665C19.5433 9.11475 19.5581 9.06405 19.5848 9.01911C19.6115 8.97417 19.6492 8.9364 19.6945 8.9092C19.6945 8.8302 19.7267 8.75444 19.784 8.69857C19.8413 8.64271 19.919 8.61133 20.0001 8.61133C20.0811 8.61133 20.1588 8.64271 20.2161 8.69857C20.2734 8.75444 20.3056 8.8302 20.3056 8.9092M22.8033 15.9026C23.6541 14.9878 24.3848 14.0496 25.1901 13.0942C25.0032 12.9499 24.8103 12.8135 24.6116 12.6867C24.0255 13.7622 23.3895 14.8272 22.8033 15.9026M17.1959 15.8974C16.6102 14.8218 15.9742 13.7565 15.3878 12.6812C15.1891 12.8083 14.9964 12.9443 14.8098 13.0892C15.615 14.0443 16.3455 14.9826 17.1963 15.8973M18.0063 16.5942C18.3853 15.1389 19.601 15.0965 19.8745 14.3297C20.0867 15.1329 19.0126 15.5218 18.9563 16.4534L20.0001 17.4712L20.998 16.4982C20.1445 15.8519 20.4848 14.9419 20.6466 14.0692C20.9677 14.0279 21.2484 13.9383 21.4748 13.709C21.3646 14.7193 20.7211 15.6562 22.101 16.49C21.4009 17.1727 20.7006 17.8554 20.0002 18.5381C19.3356 17.8901 18.671 17.2421 18.0064 16.5941M16.1367 24.3151C16.4739 24.4228 16.9123 24.4947 17.1707 24.2037L17.5876 24.9493L17.3247 23.3931L17.5876 23.1566C17.7888 23.3555 18.0443 23.4939 18.3239 23.5553L18.1131 25.9513C17.9688 25.9893 17.8245 26.027 17.6803 26.0644L16.1367 24.3151ZM13.089 24.1126L13.789 23.8064C12.8297 22.4907 12.3358 20.9062 12.382 19.2926C12.4282 17.6789 13.012 16.1238 14.0452 14.8623C13.8913 14.6576 13.7398 14.4515 13.5908 14.2441C12.4127 15.6096 11.7259 17.3138 11.6353 19.0959C11.5447 20.8781 12.0553 22.6402 13.089 24.1126ZM14.2015 24.029C14.4339 24.2968 14.8973 24.2939 15.2201 24.2348C14.6575 24.6295 14.0056 25.0629 13.4181 25.4398C13.1667 25.601 13.0627 25.5521 12.8917 25.3154C12.7386 25.1039 12.7276 24.984 12.959 24.8341C13.3724 24.5655 13.7847 24.2933 14.2015 24.029ZM14.8306 23.3447C15.1297 23.4182 15.4201 23.4729 15.5403 23.8049C15.2942 23.9896 14.9671 23.9981 14.6697 23.9254C14.3722 23.8527 14.5312 23.2714 14.8303 23.3447M15.4012 22.3288C15.1605 22.0771 14.6167 22.5759 14.8561 22.8257C15.0955 23.0755 15.4153 23.266 15.7696 23.2375C15.866 22.8451 15.642 22.5811 15.401 22.3288M16.4538 23.9828C17.1417 24.105 17.2145 23.2504 16.4689 23.2947C16.2204 23.3005 15.983 23.3957 15.8021 23.5619C15.9408 23.8281 16.1687 23.932 16.4538 23.9828ZM16.5214 22.1012C16.574 22.4131 16.6074 22.726 16.3293 22.9779C16.0439 22.8241 15.8982 22.5202 15.8456 22.2105C15.7929 21.9009 16.4684 21.7891 16.5214 22.1009M16.8395 22.1288C16.8724 22.3985 16.8667 22.7224 16.758 22.976C16.7993 22.9821 16.8396 22.9941 16.8773 23.0115C17.0466 22.8812 17.2942 22.6863 17.4632 22.5532C17.9423 23.0236 18.4019 23.2851 18.5581 23.1531C18.7128 23.0235 18.5202 22.5502 18.1208 22.0259C18.6299 21.6512 19.4918 20.8838 20.507 19.9021L20.8995 19.543C22.4169 18.101 27.429 13.0038 27.5056 11.0372C25.0204 14.1916 23.3153 16.3298 20.3937 19.0833L19.9999 19.4405L19.6058 19.0833C16.6845 16.3298 14.9792 14.1918 12.494 11.0372C12.571 13.0038 17.5565 18.1254 19.0738 19.5678L19.466 19.9269C18.8756 20.4577 18.2692 20.9772 17.6465 21.4855C17.1582 20.9993 16.6851 20.7266 16.5261 20.8602C16.3691 20.9924 16.5706 21.4803 16.9841 22.0149L16.8395 22.1288Z" fill="#B8875A"/>
</g>
</g>
<defs>
<clipPath id="clip0_2_21264">
<rect width="40" height="39" fill="white"/>
</clipPath>
</defs>
</svg>
