<svg width="144" height="26" viewBox="0 0 144 26" fill="none" xmlns="http://www.w3.org/2000/svg">
<path d="M6.60465 25.485C6.37658 25.6177 6.09148 25.6556 5.8254 25.6366H0.693801C0.14263 25.6366 -0.0854378 25.3901 0.0285977 24.9161L4.17188 7.28206C4.38094 6.39088 4.70404 5.53762 5.12217 4.74124C5.55931 3.92591 6.12949 3.16745 6.8137 2.54173C7.53592 1.87808 8.3912 1.36613 9.32249 1.00586C10.4058 0.607672 11.5462 0.399096 12.7055 0.437019H23.6719C23.957 0.437019 24.1281 0.474942 24.2041 0.569749C24.2801 0.664556 24.2611 0.892091 24.1471 1.30924L23.1968 5.38593C23.1588 5.61347 23.0637 5.841 22.9117 6.01165C22.7407 6.12542 22.5316 6.18231 22.3225 6.18231H13.4087C12.9906 6.18231 12.5915 6.23919 12.2114 6.37192C11.9263 6.48569 11.6602 6.63738 11.4511 6.86491C11.2611 7.05453 11.109 7.2631 11.014 7.5096C10.919 7.73714 10.8239 7.98363 10.7669 8.23013L10.2538 10.4676H19.7377C20.0228 10.4676 20.1939 10.5245 20.2699 10.6193C20.3459 10.7141 20.3079 10.9606 20.2129 11.3777L19.3386 15.1131C19.2056 15.663 18.9205 15.9474 18.4643 15.9474H8.98038L6.87073 24.954C6.83272 25.1626 6.75669 25.3712 6.60465 25.5229" fill="white"/>
<path d="M38.6486 13.0273C38.8386 12.1361 38.9717 11.2449 39.0477 10.3537C39.1237 9.61424 39.0667 8.85578 38.8957 8.13525C38.7436 7.54745 38.4205 7.01653 37.9454 6.63731C37.3752 6.23912 36.691 6.03054 35.9878 6.06847C35.3035 6.06847 34.6193 6.25808 34.0301 6.61834C33.403 6.99757 32.8328 7.49057 32.3956 8.07837C31.8825 8.74202 31.4643 9.46255 31.1412 10.221C30.7801 11.0363 30.495 11.9086 30.286 12.7808C30.0389 13.7668 29.8869 14.7528 29.7918 15.7577C29.7158 16.5162 29.7918 17.2746 29.9819 18.0141C30.1529 18.583 30.495 19.0949 30.9892 19.4362C31.5594 19.7965 32.2436 19.9861 32.9278 19.9482C33.669 19.9482 34.4103 19.7586 35.0375 19.3793C35.6647 18.9811 36.2158 18.4692 36.653 17.8624C37.1471 17.1798 37.5462 16.4403 37.8503 15.6439C38.1924 14.7907 38.4585 13.9185 38.6676 13.0083M45.8518 12.9704C45.4337 14.8476 44.7875 16.6679 43.9322 18.4123C43.172 19.9482 42.1647 21.3323 40.9293 22.5079C39.7129 23.6456 38.2875 24.5368 36.729 25.1057C34.9614 25.7314 33.1179 26.0348 31.2553 25.9968C29.2977 25.9968 27.6822 25.7124 26.3898 25.1246C25.1734 24.5937 24.1471 23.7025 23.4819 22.5648C22.7977 21.3134 22.4175 19.9102 22.3985 18.4692C22.3605 16.6299 22.5506 14.8096 23.0067 13.0273C23.4248 11.1501 24.1091 9.34878 25.0023 7.66122C25.8196 6.12535 26.8649 4.74117 28.1383 3.54661C29.3547 2.40893 30.7611 1.51774 32.3006 0.91098C33.9541 0.285256 35.7027 -0.0181248 37.4512 0.000836532C39.4088 0.000836532 41.0243 0.304217 42.2977 0.91098C43.5141 1.46086 44.5594 2.371 45.2626 3.52765C45.9849 4.77909 46.384 6.18223 46.422 7.6233C46.479 9.42462 46.2889 11.226 45.8518 12.9704Z" fill="white"/>
<path d="M87.893 17.4265C88.083 16.8576 87.988 16.2319 87.6649 15.7199C87.3608 15.2838 86.7907 15.0563 86.0114 15.0563H81.7731L80.6707 19.7777H84.9091C85.3272 19.7777 85.7453 19.7208 86.1444 19.5691C86.4675 19.4364 86.7716 19.2467 87.0377 19.0002C87.2658 18.7727 87.4558 18.5262 87.6079 18.2418C87.7409 17.9953 87.836 17.7298 87.893 17.4454M83.0275 9.74711H86.7906C87.2848 9.74711 87.76 9.61438 88.1971 9.38685C88.7102 9.08347 89.0524 8.57151 89.1284 7.98371C89.2804 7.56656 89.2044 7.09253 88.9383 6.73226C88.6152 6.42888 88.1781 6.25823 87.7219 6.29615H83.8067L82.9895 9.74711H83.0275ZM92.5114 11.9087C93.0816 12.1552 93.5757 12.5344 93.9749 13.0085C94.336 13.4446 94.6021 13.9565 94.7921 14.4874C94.9632 15.0373 95.0582 15.6062 95.0392 16.175C95.0392 16.7628 94.9632 17.3506 94.8301 17.9194C94.5641 19.0571 94.0889 20.119 93.4237 21.067C92.7585 22.0151 91.9412 22.8494 90.9909 23.513C90.0216 24.1957 88.9573 24.7455 87.817 25.0868C86.6576 25.4661 85.4222 25.6557 84.2058 25.6367H74.8169C73.8286 25.6367 73.2394 25.4471 73.0304 25.0868C72.8403 24.7076 72.8213 24.1009 73.0304 23.2666L77.8389 2.82622C77.9529 2.16258 78.257 1.55581 78.6941 1.04386C79.0743 0.645668 79.7585 0.456055 80.7468 0.456055H90.1357C91.124 0.456055 92.1123 0.569823 93.0816 0.81632C93.8989 1.0249 94.6401 1.42308 95.2673 1.97296C95.8565 2.52284 96.2556 3.22441 96.4647 3.98286C96.6737 4.94989 96.6547 5.97381 96.3886 6.94083C96.1416 7.94579 95.6664 8.87489 95.0012 9.65231C94.355 10.4866 93.5377 11.1692 92.6065 11.6812L92.5494 11.8897L92.5114 11.9087Z" fill="white"/>
<path d="M114.045 25.6362H102.889C101.444 25.6362 100.323 25.4277 99.5055 25.0295C98.7643 24.6882 98.1561 24.1193 97.757 23.4367C97.3959 22.7541 97.2058 21.9957 97.2058 21.2182C97.2058 20.4029 97.3008 19.5876 97.4909 18.8102L100.19 7.30062C100.399 6.40943 100.722 5.55618 101.14 4.7598C101.577 3.94446 102.147 3.18601 102.832 2.56028C103.573 1.89664 104.409 1.38468 105.34 1.02441C106.424 0.626226 107.564 0.417651 108.723 0.455574H119.367C119.652 0.455574 119.823 0.493497 119.899 0.588304C119.975 0.68311 119.956 0.910646 119.861 1.3278L118.911 5.40448C118.873 5.63202 118.778 5.85956 118.606 6.03021C118.435 6.14398 118.226 6.20086 118.036 6.20086H109.446C109.027 6.20086 108.628 6.25774 108.248 6.39047C107.963 6.50424 107.697 6.65593 107.488 6.88347C107.298 7.07308 107.146 7.28166 107.051 7.52815C106.956 7.75569 106.861 8.00219 106.804 8.24869L106.443 9.76559H116.117C116.402 9.76559 116.573 9.82248 116.649 9.91728C116.706 10.1638 116.687 10.4292 116.592 10.6757L115.718 14.4111C115.585 14.961 115.299 15.2454 114.843 15.2454H105.169L104.542 17.9379C104.447 18.2982 104.409 18.6585 104.447 19.0187C104.466 19.2463 104.58 19.4548 104.751 19.6065C104.941 19.7393 105.15 19.8341 105.378 19.853C105.663 19.8909 105.949 19.9099 106.234 19.9099H115.394C115.68 19.9099 115.851 19.9478 115.927 20.0426C116.003 20.1374 115.984 20.365 115.889 20.7821L114.938 24.8588C114.805 25.4087 114.52 25.6931 114.064 25.6931" fill="white"/>
<path d="M141.071 6.14447H134.895L130.504 24.8593C130.466 25.0679 130.371 25.2765 130.238 25.4471C130.01 25.5799 129.725 25.6367 129.459 25.6178H124.327C123.776 25.6178 123.567 25.3713 123.681 24.8593L128.071 6.14447H122.047C121.533 6.14447 121.362 5.86005 121.476 5.31018L122.427 1.27141C122.465 0.986989 122.579 0.740492 122.769 0.531917C122.959 0.43711 123.168 0.399187 123.396 0.399187H142.421C142.611 0.380226 142.82 0.418149 142.991 0.531917C143.086 0.607762 143.067 0.85426 142.991 1.27141L142.041 5.31018C141.984 5.78421 141.585 6.16344 141.091 6.14447" fill="white"/>
<path d="M56.0011 11.984L52.9221 24.8777C52.8841 25.1052 52.7891 25.2948 52.656 25.4655C52.428 25.5982 52.1429 25.6551 51.8768 25.6362H46.7452C46.194 25.6362 45.966 25.3896 46.099 24.8777L51.2686 3.28072C51.5347 2.16201 51.8958 1.40355 52.371 1.00536C52.8271 0.626137 53.5683 0.436523 54.5756 0.436523H56.4572C56.7613 0.436523 57.0844 0.436524 57.3885 0.493408C57.6356 0.531331 57.8637 0.607176 58.0727 0.701983C58.2818 0.815751 58.4719 0.986403 58.6239 1.19498C58.814 1.46044 59.004 1.76382 59.1371 2.0672L62.4631 9.7655L64.2307 14.1645H64.4777L67.5757 1.21394C67.6137 0.986403 67.7087 0.79679 67.8418 0.626138C68.0698 0.493408 68.3549 0.436524 68.621 0.455485H73.7526C74.3038 0.455485 74.5319 0.701983 74.3988 1.21394L69.2292 22.8109C69.0581 23.5504 68.7351 24.252 68.2409 24.8398C67.7848 25.3897 67.0055 25.6551 65.9222 25.6551H64.0406C63.7365 25.6551 63.4324 25.6551 63.1283 25.5982C62.8812 25.5793 62.6341 25.5034 62.4251 25.3897C62.197 25.2759 62.007 25.1052 61.8549 24.8967C61.6458 24.6312 61.4748 24.3468 61.3608 24.0244L58.0917 16.4589L56.2672 12.0029H56.0201L56.0011 11.984Z" fill="white"/>
</svg>
