<svg width="1280" height="732" viewBox="0 0 1280 732" fill="none" xmlns="http://www.w3.org/2000/svg">
<g opacity="0.3" clip-path="url(#clip0_2_21085)">
<path d="M376.07 731.449C364.29 730.809 352.52 729.999 340.74 729.569C310 728.439 279.8 724.37 250.49 714.56C192.96 695.3 159.84 655.3 148.84 596.14C139.89 547.98 143.22 499.75 147.9 451.54C155.59 372.33 168.64 293.64 169 213.74C169.33 139.74 160.1 67.4995 132.14 -1.54053C93.9496 -95.8205 27.4196 -165.05 -58.9004 -216.66C-121.91 -254.33 -190.26 -279.63 -259.21 -303.68C-295.2 -316.24 -331.01 -329.41 -366.43 -343.5C-378.76 -348.41 -390.57 -355.77 -401.02 -364.04C-420.75 -379.66 -424.76 -400.25 -410.38 -420.73C-399.4 -436.37 -386.07 -451.17 -371.2 -463.13C-313.12 -509.89 -246.93 -542.351 -176.1 -564.091C-105.2 -585.861 -33.1904 -604.06 38.3696 -623.66C118.25 -645.54 195.75 -673.22 265.87 -718.38C333.96 -762.23 395.33 -813.31 439.65 -882.44C472.89 -934.29 492.83 -991.34 506.51 -1050.95C511.95 -1074.64 517.07 -1098.47 524.11 -1121.7C538.28 -1168.49 566.11 -1189.24 614.9 -1192.44C669.06 -1196 719.87 -1182.1 770.05 -1164.14C834.91 -1140.92 888.37 -1101.05 933.26 -1049.82C1028.77 -940.821 1132.12 -839.24 1230.7 -733.18C1337.43 -618.36 1432 -494.241 1504.87 -354.651C1541.91 -283.691 1575.85 -211.381 1597.76 -134.141C1611.89 -84.3305 1621.4 -33.6605 1619.7 18.6095C1617.57 84.0995 1590.7 139.429 1550.27 189.079C1504.47 245.319 1446.98 287.64 1383.83 321.76C1327.48 352.21 1269.95 380.719 1211.74 407.439C1108.29 454.919 1008.32 508.47 916.17 575.37C798.38 660.88 665.14 703.599 522.69 721.569C484.23 726.419 445.29 727.47 406.58 730.29C403 730.55 399.43 731.059 395.86 731.459C389.24 731.449 382.66 731.449 376.07 731.449ZM392.28 713.819C437.34 710.229 476.44 708.04 515.33 703.81C591.46 695.53 665.65 678.39 737.93 652.8C802.18 630.05 859.17 594.19 915.05 556.28C984.57 509.11 1056.18 465.65 1132.21 429.65C1202.9 396.17 1273.94 363.36 1343.7 328.01C1408.23 295.31 1467.97 255.099 1517.44 201.359C1555.49 160.029 1584.66 113.539 1595.83 57.6895C1604.94 12.1395 1600.75 -33.4105 1592.19 -78.6305C1576.11 -163.47 1542.17 -241.83 1504.33 -318.72C1433.77 -462.1 1341.07 -590.47 1234.07 -708.25C1130.29 -822.48 1023.04 -933.561 917.68 -1046.36C850.28 -1118.53 767.26 -1159.93 670.1 -1173.69C644.59 -1177.3 618.93 -1177.14 593.84 -1169.21C564.02 -1159.78 545.55 -1138.83 536.11 -1110.25C525.82 -1079.08 517.43 -1047.29 508.38 -1015.71C482.64 -925.901 438.04 -847.79 368.51 -784.18C282.51 -705.5 182.41 -653.251 70.8496 -621.891C1.31961 -602.341 -68.6904 -584.45 -137.99 -564.11C-207.49 -543.71 -272.94 -514.11 -331.33 -470.44C-348.75 -457.41 -365.13 -443.111 -376.34 -424.031C-388.57 -403.231 -386.03 -385.07 -368.08 -369.24C-361 -362.99 -353.2 -356.771 -344.62 -353.141C-306.22 -336.851 -267.68 -320.83 -228.72 -305.94C-163.86 -281.15 -99.7904 -254.891 -40.9804 -217.341C36.8096 -167.661 97.7897 -103.1 135.77 -18.1205C166.45 50.5095 178.39 123.029 180.33 197.569C182.26 271.829 172.85 345.36 165.74 419.04C161.34 464.59 158.09 510.179 162.77 555.969C171.16 638.009 212.04 685.879 292.3 702.199C326.87 709.219 362.63 710.529 392.28 713.819Z" stroke="#00FFFF" stroke-miterlimit="10"/>
<path d="M396.971 -447.22C398.671 -446.49 400.501 -445.98 402.041 -445C488.121 -390.25 579.631 -378.59 677.261 -408.38C707.961 -417.75 739.611 -424.93 771.331 -429.8C807.001 -435.27 840.401 -424.1 871.991 -407.82C910.621 -387.92 943.891 -360.4 977.461 -333.32C979.911 -331.34 982.481 -329.5 986.171 -326.69C986.171 -333.89 986.331 -339.65 986.151 -345.39C983.601 -427.63 980.511 -509.86 978.641 -592.12C977.871 -625.94 984.211 -658.97 996.921 -690.54C998.221 -693.77 999.621 -696.96 1001.88 -702.33C1010.98 -683.3 1013.96 -665.26 1013.3 -646.93C1012.25 -617.67 1008.27 -588.45 1008.34 -559.22C1008.54 -480.24 1010.12 -401.26 1011.34 -322.28C1012.12 -271.6 1013.76 -220.94 1013.86 -170.26C1013.89 -152.29 1010.92 -134.24 1008.44 -116.36C1007.26 -107.9 1008.1 -100.91 1012.1 -93.0302C1016.91 -83.5702 1020.85 -72.8701 1021.8 -62.4001C1024.38 -33.8901 1009.19 -23.9601 983.021 -36.6501C969.781 -17.7401 956.421 1.3299 943.061 20.3999C942.091 19.7899 941.121 19.1798 940.151 18.5698C942.421 13.9998 945.171 9.59983 946.861 4.82983C953.431 -13.7002 959.851 -32.2902 965.791 -51.0302C966.581 -53.5102 964.441 -57.0201 963.381 -59.9501C958.911 -72.2301 953.761 -84.2902 950.081 -96.7902C948.591 -101.83 949.451 -107.95 950.591 -113.3C953.941 -129.05 964.731 -134.2 979.331 -127.59C981.671 -126.53 983.971 -125.38 988.351 -123.28C989.651 -138.35 991.901 -152.2 991.831 -166.04C991.641 -202.89 990.401 -239.73 989.701 -276.58C989.571 -283.32 987.181 -288.24 981.511 -292.32C958.821 -308.66 936.681 -325.79 913.811 -341.88C861.201 -378.89 804.211 -386.47 742.721 -367.85C702.741 -355.74 662.261 -344.75 620.011 -344.08C542.701 -342.85 474.631 -367.29 416.861 -418.97C408.491 -426.46 401.941 -436 394.561 -444.6C395.361 -445.47 396.171 -446.35 396.971 -447.22Z" stroke="#00FFFF" stroke-miterlimit="10"/>
<path d="M686.569 204.099C664.469 215.259 643.529 226.06 622.249 236.16C620.429 237.02 615.129 233.989 613.609 231.469C604.479 216.319 600.709 199.199 602.989 182.109C606.149 158.449 610.119 134.55 617.159 111.81C635.349 53.1196 657.169 -4.47052 668.919 -65.0505C683.579 -140.641 679.969 -215.52 660.809 -289.88C657.219 -303.8 657.479 -303.76 672.169 -305.62C680.649 -306.69 689.139 -307.87 697.519 -309.56C703.879 -310.84 707.239 -309.04 709.089 -302.58C732.599 -220.82 741.829 -137.851 723.839 -54.0605C712.749 -2.39053 696.789 48.2295 683.239 99.3795C680.129 111.13 677.399 123.05 675.469 135.04C671.769 158.2 671.899 181.019 686.569 204.099Z" stroke="#00FFFF" stroke-miterlimit="10"/>
<path d="M432.239 -340.9C445.679 -333.36 458.549 -326.41 471.039 -318.83C473.029 -317.63 474.029 -313.68 474.269 -310.89C477.999 -267.65 483.149 -224.44 484.689 -181.11C486.709 -124.49 471.819 -70.3304 454.689 -16.9204C433.219 50.0296 423.699 118.19 433.239 188.28C438.899 229.88 450.999 269.24 476.669 303.37C504.369 340.2 542.029 358.65 587.319 362.02C639.049 365.87 688.699 354.57 737.799 339.95C740.829 339.05 743.839 338.08 748.989 336.48C739.649 348.72 731.929 358.03 717.639 361.42C673.959 371.79 630.249 380.76 584.999 378.47C510.289 374.7 460.289 336.35 431.609 268.52C412.659 223.7 405.969 176.24 401.899 128.2C396.649 66.2896 401.879 5.06964 417.529 -54.7404C436.459 -127.12 440.719 -199.87 432.589 -273.98C430.259 -295.35 432.239 -317.19 432.239 -340.9Z" stroke="#00FFFF" stroke-miterlimit="10"/>
<path d="M748 146.289C746.81 133.309 743.72 122.159 745.23 111.669C749.1 84.6895 754.02 57.7795 760.29 31.2595C775.58 -33.3605 786.6 -98.2906 780.53 -165.051C776.1 -213.741 764.69 -261.011 751.1 -307.791C748.49 -316.781 749.68 -320.361 759.52 -322.251C786.31 -327.401 781.54 -330.231 789.19 -304.881C804.2 -255.111 817.36 -204.921 823.49 -153.121C829.81 -99.6706 824.32 -46.7505 817.91 6.25946C815.11 29.3695 814.71 52.7695 812.98 76.0295C812.72 79.4595 812.15 83.8995 809.94 85.9995C791.63 103.359 779.66 126.849 757.42 140.359C755.22 141.669 753.09 143.069 748 146.289Z" stroke="#00FFFF" stroke-miterlimit="10"/>
<path d="M814.9 -329.541C835.37 -330.691 853.41 -327.821 871.01 -322.121C905.58 -310.911 935.78 -291.631 964.72 -270.251C967.39 -268.281 969.23 -263.791 969.56 -260.281C970.83 -246.881 971.32 -233.411 972.23 -217.851C938.21 -239.831 905.73 -262.211 863.54 -266.861C867.19 -254.541 870.17 -243.591 873.66 -232.801C892.97 -173.261 905.59 -112.111 918.44 -50.9607C921.29 -37.4107 920.64 -27.0307 911.67 -16.5907C906.36 -10.4007 903.18 -2.36075 897.76 3.69925C891.45 10.7492 883.74 16.5293 874.43 24.8293C872.93 17.8193 871.7 14.5193 871.58 11.1693C870.88 -9.53066 869.68 -30.2508 870.03 -50.9308C871.22 -120.851 855.72 -187.981 837.01 -254.611C831.06 -275.801 824.41 -296.791 818.11 -317.881C817.1 -321.271 816.23 -324.701 814.9 -329.541Z" stroke="#00FFFF" stroke-miterlimit="10"/>
<path d="M767.41 343.32C784.61 321.43 802.08 299.74 818.95 277.6C847.06 240.71 880.12 208.85 915.78 179.39C923.51 173 931.47 165.46 935.88 156.71C959.5 109.85 991.72 68.9597 1025.05 29.1597C1048.63 0.989668 1055.18 -28.8704 1046.37 -63.5004C1043.37 -75.2804 1041.83 -87.4504 1038.59 -99.1504C1028.95 -134 1036.07 -168.92 1038.71 -205.15C1048.62 -194.52 1058.84 -184.16 1068.17 -173.05C1070.18 -170.66 1069.69 -165.43 1069.1 -161.7C1065.54 -139.33 1067.92 -117.39 1076.36 -96.7404C1096.74 -46.9004 1084.04 -4.05043 1050.12 34.4396C1031.73 55.2996 1015.86 77.5596 1003.29 102.47C985.1 138.53 956.51 166.03 925.21 190.4C879.51 225.97 839.14 266.81 801.14 310.26C790.77 322.12 779.64 333.33 768.87 344.83C768.38 344.31 767.89 343.81 767.41 343.32Z" stroke="#00FFFF" stroke-miterlimit="10"/>
<path d="M1056.62 -625.671C1076.38 -600.701 1096.69 -576.151 1115.79 -550.691C1168.7 -480.181 1218.72 -407.761 1258.32 -328.691C1285.93 -273.571 1307.76 -216.421 1317.6 -155.261C1325.14 -108.381 1325.5 -61.471 1313.8 -15.181C1300.96 35.649 1267.77 72.7691 1229.21 105.749C1179.27 148.459 1121.87 179.289 1063.13 207.619C981.43 247.019 899.35 285.609 817.41 324.509C813.3 326.459 809 328.029 804.79 329.779C804.17 329.019 803.55 328.249 802.93 327.489C812.36 319.659 820.7 309.589 831.4 304.339C929.03 256.439 1027.6 210.439 1124.76 161.629C1174.6 136.589 1219.44 103.569 1257.32 61.7391C1290.58 25.0091 1306.46 -18.401 1310.48 -67.041C1317 -145.871 1297.23 -219.531 1266.39 -290.911C1231.92 -370.711 1184.71 -443.031 1133.54 -512.821C1109.64 -545.421 1084.07 -576.791 1059.53 -608.931C1056.28 -613.191 1054.66 -618.711 1052.29 -623.651C1053.75 -624.321 1055.19 -624.991 1056.62 -625.671Z" stroke="#00FFFF" stroke-miterlimit="10"/>
<path d="M866.23 172.28C859.18 158.04 853.03 145.6 847.42 134.25C870.6 118.65 894.36 102.68 918.1 86.6998C917.5 90.8498 916.76 95.8999 915.65 103.52C918.96 99.5299 921.3 97.5098 922.64 94.9598C932.38 76.3698 941.62 57.5099 951.62 39.0599C958.45 26.4499 966.16 14.3199 973.72 2.11987C974.74 0.479873 977.06 -1.11007 978.94 -1.32007C985.92 -2.12007 992.97 -2.33008 1001.09 -2.83008C1000.06 0.0999219 999.01 3.65994 997.57 7.05994C974.58 61.0999 938.71 106.31 898.96 148.56C889.73 158.37 876.86 164.74 866.23 172.28Z" stroke="#00FFFF" stroke-miterlimit="10"/>
<path d="M1128.35 -26.4104C1131.43 -34.8904 1134.51 -43.3604 1138.01 -53.0304C1142.49 -43.3704 1149.37 -39.1904 1161.02 -43.5404C1159.06 -38.8504 1157.93 -35.6103 1156.4 -32.5803C1138.1 3.63968 1112.02 34.0696 1084.38 63.2596C1082.14 65.6296 1077.42 65.6597 1073.85 66.7697C1073.26 65.7197 1072.67 64.6696 1072.08 63.6296C1074.59 58.7396 1077.02 53.8096 1079.63 48.9796C1095.67 19.2296 1107.66 -11.7903 1109.87 -45.9403C1110.17 -50.5303 1110.66 -55.1403 1110.55 -59.7303C1110.3 -70.2303 1107.65 -81.2003 1109.9 -91.0903C1112.13 -100.91 1119.16 -109.63 1124.34 -119.32C1130.79 -114.17 1132.85 -106.35 1132.39 -98.3004C1131.13 -76.7104 1129.12 -55.1704 1127.4 -33.6204C1127.22 -31.3704 1127.01 -29.1304 1126.81 -26.8904C1127.32 -26.7204 1127.84 -26.5604 1128.35 -26.4104Z" stroke="#00FFFF" stroke-miterlimit="10"/>
<path d="M819.76 216.109C797.73 248.389 689.22 279.739 659.2 262.719C679.34 249.009 699.33 235.319 719.46 221.839C721.14 220.719 724 220.099 725.86 220.689C752.44 229.119 778.66 223.369 804.92 218.949C809.73 218.149 814.5 217.119 819.76 216.109Z" stroke="#00FFFF" stroke-miterlimit="10"/>
<path d="M766.129 177.869C710.729 217.329 655.859 258.119 591.789 283.689C584.879 286.449 577.369 288.599 570.019 289.029C566.189 289.259 562.099 285.119 558.129 282.949C560.889 279.839 563.039 275.449 566.499 273.829C594.379 260.779 622.499 248.259 650.539 235.569C651.429 235.169 652.319 234.689 653.099 234.109C687.239 208.609 727.489 195.139 766.129 177.869Z" stroke="#00FFFF" stroke-miterlimit="10"/>
<path d="M1036.93 127.539C1045.25 119.909 1052.76 111.059 1062.04 104.849C1102.21 77.9892 1142 50.7492 1176.26 15.9492C1180.95 31.5492 1175.36 51.5293 1163.89 61.0293C1126.58 91.9293 1083.17 111.759 1039.28 130.719C1038.5 129.669 1037.71 128.599 1036.93 127.539Z" stroke="#00FFFF" stroke-miterlimit="10"/>
<path d="M267.26 314.399C267.81 307.109 266.76 297.029 276.42 292.629C285.8 288.359 292.69 295.609 298.9 301.149C314.95 315.479 328.85 331.829 337.16 351.799C339.88 358.349 340.86 367.999 337.96 373.949C333.85 382.389 323.62 381.479 314.92 380.049C288.07 375.649 267.38 347.789 267.26 314.399ZM279.34 322.429C279.54 342.169 293.03 359.469 308.85 363.319C320.33 366.109 326.46 360.009 322.78 348.789C318.11 334.539 308.63 323.689 296.12 315.769C292.92 313.739 287.18 312.269 284.46 313.809C281.27 315.619 280.11 320.989 279.34 322.429Z" stroke="#00FFFF" stroke-miterlimit="10"/>
<path d="M1186.8 77.6399C1191.33 37.7899 1195.02 0.619923 1183.56 -37.0801C1191.69 -34.3101 1197.23 -23.8601 1206.05 -34.2101C1213.77 -7.03008 1215.58 19.0599 1212.89 45.2699C1211.42 59.4899 1201.6 68.7299 1186.8 77.6399Z" stroke="#00FFFF" stroke-miterlimit="10"/>
<path d="M810.01 102.719C816.3 95.2894 821.05 88.6195 826.84 83.0495C838.66 71.6895 850.8 60.6295 863.41 50.1695C865.89 48.1195 872.22 47.7495 874.71 49.5095C877.26 51.3195 878.8 56.9794 878.16 60.4794C874.25 81.9994 837.62 107.94 815.98 105.05C814.79 104.9 813.66 104.179 810.01 102.719Z" stroke="#00FFFF" stroke-miterlimit="10"/>
<path d="M287.69 272.56C284.94 267.23 281.45 262.13 279.65 256.49C277.99 251.27 277.65 245.48 277.59 239.93C277.48 230.16 274.97 221.64 266.53 216C257.03 209.66 256.35 199.99 255.49 188.39C258.38 190.64 260.34 191.89 261.97 193.48C271.14 202.43 279.59 212.26 289.5 220.29C303.82 231.88 311.96 245.81 313.54 264.36C314.5 275.64 317.9 286.71 320.44 298.98C312.32 296.59 308.2 292.27 306.97 285.23C305.49 276.83 303.74 268.45 302.75 259.99C301.6 250.19 297.25 242.81 286.78 237.09C288.16 249.17 289.41 260.16 290.66 271.14C289.66 271.62 288.68 272.09 287.69 272.56Z" stroke="#00FFFF" stroke-miterlimit="10"/>
<path d="M932.03 44.6699C930.9 67.9499 876.03 111.58 854.18 107.33C856.58 95.7498 916.79 46.9099 932.03 44.6699Z" stroke="#00FFFF" stroke-miterlimit="10"/>
<path d="M944.919 -28.5101C944.339 -24.1601 943.989 -19.7601 943.149 -15.4601C939.059 5.48992 928.269 22.9898 914.269 38.5898C912.129 40.9698 907.289 42.6099 904.289 41.9299C902.429 41.5099 900.389 35.9698 900.659 32.9398C903.259 4.65982 922.519 -12.5502 941.069 -30.1602C942.359 -29.6202 943.639 -29.0601 944.919 -28.5101Z" stroke="#00FFFF" stroke-miterlimit="10"/>
<path d="M746.25 174.449C753.75 154.259 807.06 119.639 823.28 124.309C821.34 135.949 767.51 171.349 746.25 174.449Z" stroke="#00FFFF" stroke-miterlimit="10"/>
</g>
<defs>
<clipPath id="clip0_2_21085">
<rect width="2038.88" height="1924.45" fill="white" transform="translate(-419 -1193)"/>
</clipPath>
</defs>
</svg>
