<svg width="777" height="120" viewBox="0 0 777 120" fill="none" xmlns="http://www.w3.org/2000/svg">
<g clip-path="url(#clip0_91_2606)">
<path d="M368.009 101.198C368.287 100.78 368.358 100.337 368.868 99.9473C380.478 91.0832 387.854 81.8451 394.897 72.5787C400.815 64.7911 408.617 57.1818 417.354 49.6551C421.572 46.0234 425.73 42.3851 429.919 38.7512C435.653 33.7755 444.627 29.376 455.681 25.3115C469.377 20.2771 483.47 15.3666 501.253 11.5652C505.258 10.7084 509.807 10.0429 514.368 9.471C517.04 9.1361 520.233 9.03823 523.189 9.05563C527.928 9.07955 531.008 10.0147 529.99 11.3673C528.74 13.031 527.028 14.7599 524.036 16.18C518.503 18.8092 511.898 21.234 505.732 23.7414C504.784 24.1263 503.765 24.4938 502.308 25.0506C503.688 24.9636 504.375 24.9375 505.033 24.8766C509.629 24.4634 512.224 25.0049 511.051 26.4141C509.582 28.1778 507.728 29.9871 504.724 31.5442C494.547 36.8135 484.204 42.0633 473.174 47.1738C447.874 58.8976 425.174 71.0151 407.87 84.0372C400.839 89.3282 391.224 94.2431 378.737 98.5816C375.805 99.6015 372.386 100.495 369.188 101.448C368.797 101.365 368.4 101.283 368.009 101.198ZM466.131 41.898C465.675 41.8284 465.213 41.7588 464.757 41.6892C455.154 44.599 448.537 48.2068 440.344 51.4515C424.948 57.5515 418.326 64.6976 412.55 71.9719C413.077 71.9067 413.356 71.8067 413.533 71.6914C422.549 65.6892 434.237 60.1416 445.362 54.4917C452.322 50.9578 458.317 47.2499 464.614 43.6008C465.491 43.0941 465.639 42.4699 466.131 41.898ZM448.922 41.2216C449.313 41.0825 449.894 40.8911 450.415 40.6888C458.394 37.5986 466.397 34.5127 474.335 31.4137C479.815 29.2717 485.318 27.1274 488.363 24.5352C488.896 24.0806 489.068 23.587 489.4 23.1129C488.89 23.0433 488.381 22.9737 487.871 22.9041C469.099 27.8755 454.177 33.6167 448.922 41.2216Z" fill="#E80024"/>
<path d="M127.384 79.4176C126.146 78.7434 125.127 78.2845 124.422 77.7887C116.994 72.5411 109.79 67.2653 102.166 62.0417C97.8656 59.095 93.1147 56.2048 88.1565 53.3494C86.3082 52.286 83.607 51.3052 80.7399 50.457C77.4699 49.4915 75.2189 49.7285 72.5472 50.8485C69.0759 52.3034 68.5427 53.4908 72.3162 55.1935C82.9494 59.9931 90.2357 65.3255 97.8834 70.5883C101.568 73.1218 105.318 75.6466 109.038 78.1758C111.425 79.7959 111.348 79.9612 107.397 81.203C105.963 81.6531 104.411 82.0707 103.002 82.5274C101.1 83.145 99.6546 82.9971 98.4284 82.3164C97.599 81.8554 96.7519 81.3965 95.97 80.9268C85.8106 74.8681 75.7461 68.7941 65.4446 62.7572C62.9684 61.3066 59.6985 59.9757 56.4522 58.4252C53.4844 59.5777 50.9135 60.5759 48.3366 61.5763C44.9482 62.892 41.5479 64.2055 38.1595 65.519C35.707 66.4694 35.3516 66.4368 32.2653 65.6299C25.5773 63.8837 18.8656 62.1439 11.9288 60.4911C9.12688 59.8235 5.73253 59.3733 2.56329 58.8492C-0.0491084 58.4165 -0.629642 57.9054 0.661749 57.0507C10.6493 50.457 20.5717 43.8525 30.3578 37.2327C35.6893 33.627 44.9008 32.2591 57.7555 33.3769C70.2192 34.4599 79.8098 36.8347 87.9669 39.7662C100.134 44.1395 109.263 49.0718 116.656 54.2736C124.618 59.8757 132.04 65.543 139.723 71.1776C140.902 72.0431 140.985 72.8608 139.38 73.6785C136.151 75.3182 132.994 76.971 129.759 78.6107C129.315 78.8347 128.592 79.0109 127.384 79.4176Z" fill="#E80024"/>
<path d="M330.203 99.5318C332.093 98.2836 334.001 97.0375 335.872 95.787C348.846 87.1317 358.193 78.0936 366.647 68.9599C367.624 67.9008 369.141 66.8635 370.918 65.9022C382.06 59.8631 393.339 53.8457 404.606 47.8283C405.477 47.3629 406.609 46.9432 407.622 46.5039C407.894 46.5431 408.167 46.5844 408.439 46.6235C407.189 47.8718 406.04 49.1288 404.666 50.3662C394.352 59.6522 387.179 69.2013 379.01 78.6699C371.546 87.3165 362.53 95.7979 348.816 103.753C344.989 105.971 340.031 107.941 332.97 109.303C326.08 110.632 318.954 111.858 311.745 113.028C307.053 113.789 305.424 113.646 302.32 112.36C296.716 110.04 291.314 107.678 285.597 105.238C285.105 105.48 284.424 105.769 283.903 106.082C276.931 110.277 269.135 114.322 259.905 118.11C258.057 118.869 255.818 119.298 252.744 119.374C244.438 119.58 236.139 119.796 227.834 119.989C226.371 120.024 224.878 119.965 222.852 119.944C223.45 119.617 223.652 119.428 224.06 119.3C240.967 113.97 252.187 107.574 262.02 100.917C265.012 98.8903 267.891 96.8439 271.125 94.8519C273.986 93.086 278.773 91.8421 284.359 90.8439C291.118 89.6369 297.812 88.3974 304.506 87.16C309.381 86.2575 311.146 86.501 313.243 88.1212C317.757 91.605 322.544 95.0585 327.253 98.5206C327.721 98.8642 328.432 99.1774 329.036 99.5057C329.416 99.5123 329.806 99.521 330.203 99.5318Z" fill="#E80024"/>
<path d="M143.852 86.205C154.006 86.3355 163.265 87.4272 172.239 88.7146C188.038 90.9807 203.979 93.1793 219.316 95.7063C237.952 98.777 242.425 103.964 232.319 109.516C220.803 115.844 200.478 118.534 176.558 116.383C147.051 113.728 125.643 108.037 112.995 99.5773C108.487 96.5631 107.45 93.399 114.02 90.4848C121.081 87.3446 131.3 86.0224 143.852 86.205ZM171.866 111.473C184.365 111.884 193.18 109.931 196.953 106.602C199.293 104.536 197.765 102.681 191.971 101.358C188.571 100.584 184.78 99.9057 180.858 99.4055C168.697 97.8527 156.82 98.8901 149.095 102.063C144.925 103.777 144.699 105.221 148.917 106.958C155.268 109.57 163.827 111.138 171.866 111.473Z" fill="#E80024"/>
<path d="M578.023 13.776C595.703 11.6087 613.216 10.1405 631.788 9.73849C630.034 10.6707 628.024 11.5417 626.579 12.5438C623.558 14.6354 619.175 15.5501 613.193 15.9929C598.076 17.1086 583.47 18.9817 569.394 21.4287C567.556 21.7491 565.897 22.4424 564.755 23.1241C562.829 24.2748 561.312 25.542 559.754 26.7858C559.165 27.2549 558.933 27.7938 558.535 28.3036C558.749 28.4201 558.969 28.5366 559.183 28.6531C560.926 28.4143 562.757 28.2482 564.399 27.9278C580.746 24.7321 597.731 22.2444 615.553 20.6684C616.35 20.5985 617.141 20.5256 617.95 20.479C618.277 20.4615 618.628 20.5082 619.633 20.5577C617.421 21.9152 615.048 23.1008 613.418 24.4321C610.219 27.048 604.944 28.324 598.159 29.2328C576.054 32.1984 556.025 36.7777 536.954 42.0621C532.666 43.2506 528.087 44.2731 523.567 45.3189C522.081 45.6626 520.392 45.919 518.715 46.0734C515.379 46.3822 513.547 45.7966 514.249 44.4158C515.046 42.8369 516.271 41.2522 517.989 39.8015C524.18 34.558 530.686 29.3756 537.007 24.1553C540.397 21.3559 543.745 18.5477 546.921 15.7103C556.115 7.49251 572.427 3.0821 594.258 1.66634C613.407 0.425368 632.74 -0.00576801 652.162 5.81516e-05C653.096 5.81516e-05 654.03 0.029189 654.957 0.0757983C655.267 0.0903637 655.552 0.206887 656.367 0.39915C653.048 1.99261 649.95 3.5948 646.489 5.06008C645.549 5.45917 643.522 5.51744 641.952 5.59609C626.817 6.3564 611.646 7.00893 596.547 7.85373C587.883 8.33439 581.478 10.19 578.023 13.776Z" fill="#E80024"/>
<path d="M776 11.4155C772.745 12.593 770.119 13.7317 767.005 14.5566C765.899 14.8495 763.497 14.4819 761.855 14.2308C752.418 12.7783 743.023 11.287 733.646 9.77172C731.692 9.45492 730.238 9.5386 728.678 10.1393C716.728 14.724 704.737 19.2907 692.693 23.8305C691.674 24.2131 690.185 24.6106 688.902 24.6136C678.742 24.6285 668.575 24.5478 658.409 24.491C657.974 24.488 657.538 24.4103 656.367 24.2938C667.545 17.5812 681.308 12.0461 695 6.49013C694.936 6.35265 694.871 6.21816 694.806 6.08068C683.851 5.71008 672.896 5.33649 660.976 4.93302C663.166 3.84514 665.161 3.02922 666.645 2.07583C669.482 0.249737 673.232 -0.14776 678.388 0.0435168C711.071 1.25992 742.323 4.71186 772.156 10.4681C773.269 10.6863 774.275 10.9881 776 11.4155Z" fill="#E80024"/>
<path d="M177.601 17.238C177.569 17.2783 177.538 17.3188 177.502 17.3586C177.498 17.3624 177.445 17.3647 177.444 17.3636C177.432 17.3508 177.408 17.3346 177.419 17.3242C177.453 17.2931 177.501 17.2641 177.544 17.2344L177.601 17.2378V17.238Z" fill="white"/>
<path d="M179.19 18.3862C179.257 18.3428 179.308 18.3095 179.366 18.2715C179.442 18.3318 179.38 18.3757 179.19 18.3862Z" fill="white"/>
</g>
<path d="M184.458 19.8634H207.427C227.9 19.5586 243.671 33.1788 243.38 52.7213C243.684 72.0518 227.808 86.2814 207.427 85.9768H184.458V19.8634ZM207.321 70.4355C218.205 70.4355 225.8 63.5194 225.8 52.7082C225.8 41.8968 218.509 35.4841 207.321 35.4841H201.629V70.4488H207.321V70.4355Z" fill="#DFDFDF"/>
<path d="M287.259 85.9639L272.373 65.4277H265.28V85.9639H248.109V19.8506H273.971C288.752 19.8506 299.437 28.9659 299.437 42.5861C299.437 50.9065 295.937 57.1072 289.055 61.4132L306.438 85.9506H287.259V85.9639ZM265.294 50.4031H274.077C284.657 50.4031 284.657 34.8751 274.077 34.8751H265.294V50.4031Z" fill="#DFDFDF"/>
<path d="M338.375 18.6577C357.646 18.2603 374.421 34.0798 374.024 52.92C374.421 71.8532 357.646 87.474 338.375 87.1825C318.905 87.4872 302.527 71.8532 302.923 52.92C302.527 34.0931 319.103 18.2603 338.375 18.6577ZM338.48 34.4773C333.184 34.4773 328.798 36.1864 325.496 39.5915C318.8 46.4015 318.905 59.4254 325.496 66.3415C328.785 69.6405 333.184 71.3497 338.48 71.3497C348.861 71.3497 356.457 63.8375 356.457 52.92C356.457 42.0028 348.769 34.4905 338.48 34.4905V34.4773Z" fill="#DFDFDF"/>
<path d="M378.647 19.8633H404.51C419.289 19.8633 429.974 28.9786 429.974 42.5988C429.974 56.2189 418.985 65.4404 404.51 65.4404H395.818V85.9766H378.647V19.8633ZM404.602 50.4026C415.182 50.4026 415.182 34.8745 404.602 34.8745H395.818V50.4026H404.602Z" fill="#DFDFDF"/>
<path d="M439.578 63.5328C443.872 69.1372 447.965 72.0388 454.252 72.0388C458.744 72.0388 461.042 70.4356 461.042 67.2293C461.042 65.8249 460.646 64.7253 459.748 64.0231C458.849 63.3209 457.053 62.3138 454.359 61.1215L447.57 58.1139C436.487 53.1985 430.887 46.4944 430.887 38.1738C430.887 26.5543 440.371 18.6445 453.949 18.6445C464.635 18.6445 472.124 23.0566 476.522 31.9733L465.045 40.7839C461.755 35.8817 458.651 33.7751 454.161 33.7751C450.264 33.7751 448.27 35.1795 448.27 37.9884C448.27 40.3865 449.67 41.6982 453.962 43.394L461.556 46.6004C473.234 51.5157 478.438 57.3189 478.438 66.5404C478.438 79.0609 468.254 87.1693 454.265 87.1693C442.589 87.1693 432.802 81.5649 428.007 72.3436L439.592 63.5328H439.578Z" fill="#DFDFDF"/>
<path d="M58.3308 36.0435H38.5709V87.1587H21.4V36.0435H1.64014V20.3564H58.3175V36.0435H58.3308Z" fill="#DFDFDF"/>
<path d="M88.9148 19.1377C93.8416 19.1377 98.4645 20.0121 102.784 21.7743C107.103 23.5232 110.88 25.961 114.117 29.0613C117.34 32.1616 119.888 35.8317 121.751 40.045C123.614 44.2581 124.552 48.8291 124.552 53.7578C124.552 58.6864 123.614 63.2575 121.751 67.4706C119.888 71.6839 117.34 75.3539 114.117 78.4543C110.893 81.5545 107.116 83.9924 102.784 85.7413C98.4513 87.4902 93.8416 88.3779 88.9148 88.3779C83.988 88.3779 79.3783 87.5035 75.0988 85.7413C70.806 83.9924 67.068 81.5545 63.8717 78.4543C60.6751 75.3539 58.1523 71.6839 56.2899 67.4706C54.4276 63.2575 53.4897 58.6864 53.4897 53.7578C53.4897 48.8291 54.4276 44.2581 56.2899 40.045C58.1523 35.8317 60.6751 32.1749 63.8717 29.0613C67.068 25.961 70.806 23.5232 75.0988 21.7743C79.3915 20.0254 84.0013 19.1377 88.9148 19.1377ZM89.0073 35.1294C86.3525 35.1294 83.9219 35.58 81.7163 36.4941C79.5104 37.4082 77.6216 38.667 76.0233 40.2834C74.4251 41.8997 73.1968 43.8607 72.325 46.1528C71.4664 48.4449 71.0306 50.9754 71.0306 53.7445C71.0306 56.5137 71.4664 59.1502 72.325 61.4423C73.1835 63.7344 74.4251 65.6952 76.0233 67.3116C77.6216 68.9281 79.5236 70.1867 81.7163 71.0612C83.9088 71.9356 86.3392 72.3729 89.0073 72.3729C91.6754 72.3729 93.8944 71.9356 96.0869 71.0612C98.2796 70.1867 100.182 68.9413 101.78 67.3116C103.378 65.6952 104.633 63.7344 105.571 61.4423C106.495 59.1502 106.97 56.5798 106.97 53.7445C106.97 50.9091 106.509 48.4449 105.571 46.1528C104.633 43.8607 103.378 41.8997 101.78 40.2834C100.182 38.667 98.2796 37.3951 96.0869 36.4941C93.8944 35.5931 91.5301 35.1294 89.0073 35.1294Z" fill="#DFDFDF"/>
<path d="M154.593 20.3564C158.186 20.3564 161.542 20.8997 164.672 21.9728C167.801 23.0593 170.495 24.5697 172.755 26.5306C175.013 28.4914 176.796 30.9028 178.091 33.7646C179.385 36.6396 180.033 39.8194 180.033 43.3305C180.033 46.8415 179.385 49.9021 178.091 52.7374C176.796 55.5728 175.013 57.9974 172.755 60.0245C170.495 62.0515 167.801 63.6149 164.672 64.7279C161.542 65.8408 158.186 66.3973 154.593 66.3973H145.915V87.1456H128.745V20.3564H154.593ZM145.915 35.5268V51.2138H154.698C157.089 51.2138 159.005 50.4851 160.444 49.0409C161.871 47.5835 162.585 45.6888 162.585 43.3173C162.585 40.9456 161.871 39.0642 160.444 37.6467C159.018 36.2289 157.102 35.5135 154.698 35.5135H145.915V35.5268Z" fill="#DFDFDF"/>
<path d="M549.738 22.66H569.043L539.343 89.188H533.898L504.198 22.66H523.503L536.67 54.736L549.738 22.66ZM569.853 88V22.66H586.881V88H569.853ZM593.98 88V22.66H616.75C626.914 22.528 635.428 25.498 642.292 31.57C649.156 37.642 652.522 45.496 652.39 55.132C652.522 64.702 649.123 72.622 642.193 78.892C635.329 85.096 626.848 88.132 616.75 88H593.98ZM611.008 72.655H616.651C622.063 72.655 626.452 71.071 629.818 67.903C633.25 64.735 634.966 60.478 634.966 55.132C634.966 49.72 633.283 45.529 629.917 42.559C626.617 39.589 622.195 38.104 616.651 38.104H611.008V72.655ZM656.199 88V22.66H701.541V38.005H673.227V47.014H693.423V61.27H673.227V72.655H702.729V88H656.199ZM702.581 55.33C702.383 46.024 705.782 38.005 712.778 31.273C719.84 24.541 728.156 21.274 737.726 21.472C747.296 21.274 755.612 24.541 762.674 31.273C769.802 38.005 773.267 46.024 773.069 55.33C773.267 64.702 769.802 72.721 762.674 79.387C755.612 86.053 747.296 89.32 737.726 89.188C728.09 89.32 719.774 86.053 712.778 79.387C705.782 72.721 702.383 64.702 702.581 55.33ZM755.645 55.33C755.645 49.984 753.929 45.628 750.497 42.262C747.131 38.83 742.907 37.114 737.825 37.114C732.545 37.114 728.255 38.797 724.955 42.163C721.655 45.529 720.005 49.918 720.005 55.33C720.005 60.742 721.655 65.164 724.955 68.596C728.255 71.896 732.545 73.546 737.825 73.546C742.973 73.546 747.23 71.863 750.596 68.497C753.962 65.131 755.645 60.742 755.645 55.33Z" fill="#DFDFDF"/>
<defs>
<clipPath id="clip0_91_2606">
<rect width="776" height="120" fill="white"/>
</clipPath>
</defs>
</svg>
