<svg width="1312" height="554" viewBox="0 0 1312 554" fill="none" xmlns="http://www.w3.org/2000/svg">
<path opacity="0.7" d="M622.236 466.34C622.706 464.42 622.826 462.38 623.686 460.59C643.286 419.83 655.736 377.35 667.626 334.74C677.616 298.93 690.786 263.94 705.536 229.33C712.656 212.63 719.676 195.9 726.746 179.19C736.426 156.31 751.576 136.08 770.236 117.39C793.356 94.2397 817.146 71.6597 847.166 54.1797C853.926 50.2397 861.606 47.1797 869.306 44.5497C873.816 43.0097 879.206 42.5597 884.196 42.6397C892.196 42.7497 897.396 47.0497 895.676 53.2697C893.566 60.9197 890.676 68.8697 885.626 75.3997C876.286 87.4897 865.136 98.6397 854.726 110.17C853.126 111.94 851.406 113.63 848.946 116.19C851.276 115.79 852.436 115.67 853.546 115.39C861.306 113.49 865.686 115.98 863.706 122.46C861.226 130.57 858.096 138.89 853.026 146.05C835.846 170.28 818.386 194.42 799.766 217.92C757.056 271.83 718.736 327.55 689.526 387.43C677.656 411.76 661.426 434.36 640.346 454.31C635.396 459 629.626 463.11 624.226 467.49C623.566 467.11 622.896 466.73 622.236 466.34ZM787.876 193.66C787.106 193.34 786.326 193.02 785.556 192.7C769.346 206.08 758.176 222.67 744.346 237.59C718.356 265.64 707.176 298.5 697.426 331.95C698.316 331.65 698.786 331.19 699.086 330.66C714.306 303.06 734.036 277.55 752.816 251.57C764.566 235.32 774.686 218.27 785.316 201.49C786.796 199.16 787.046 196.29 787.876 193.66ZM758.826 190.55C759.486 189.91 760.466 189.03 761.346 188.1C774.816 173.89 788.326 159.7 801.726 145.45C810.976 135.6 820.266 125.74 825.406 113.82C826.306 111.73 826.596 109.46 827.156 107.28C826.296 106.96 825.436 106.64 824.576 106.32C792.886 129.18 767.696 155.58 758.826 190.55Z" stroke="#E80024" stroke-miterlimit="10"/>
<path opacity="0.7" d="M216.037 366.19C213.947 363.09 212.227 360.98 211.037 358.7C198.497 334.57 186.337 310.31 173.467 286.29C166.207 272.74 158.187 259.45 149.817 246.32C146.697 241.43 142.137 236.92 137.297 233.02C131.777 228.58 127.977 229.67 123.467 234.82C117.607 241.51 116.707 246.97 123.077 254.8C141.027 276.87 153.327 301.39 166.237 325.59C172.457 337.24 178.787 348.85 185.067 360.48C189.097 367.93 188.967 368.69 182.297 374.4C179.877 376.47 177.257 378.39 174.877 380.49C171.667 383.33 169.227 382.65 167.157 379.52C165.757 377.4 164.327 375.29 163.007 373.13C145.857 345.27 128.867 317.34 111.477 289.58C107.297 282.91 101.777 276.79 96.2971 269.66C91.2871 274.96 86.9471 279.55 82.5971 284.15C76.8771 290.2 71.1371 296.24 65.4171 302.28C61.2771 306.65 60.6771 306.5 55.4671 302.79C44.1771 294.76 32.8471 286.76 21.1371 279.16C16.4071 276.09 10.6771 274.02 5.3271 271.61C0.9171 269.62 -0.0629002 267.27 2.1171 263.34C18.9771 233.02 35.7271 202.65 52.2471 172.21C61.2471 155.63 76.7971 149.34 98.4971 154.48C119.537 159.46 135.727 170.38 149.497 183.86C170.037 203.97 185.447 226.65 197.927 250.57C211.367 276.33 223.897 302.39 236.867 328.3C238.857 332.28 238.997 336.04 236.287 339.8C230.837 347.34 225.507 354.94 220.047 362.48C219.297 363.51 218.077 364.32 216.037 366.19Z" stroke="#E80024" stroke-miterlimit="10"/>
<path opacity="0.7" d="M558.417 458.68C561.607 452.94 564.827 447.21 567.987 441.46C589.887 401.66 605.667 360.1 619.937 318.1C621.587 313.23 624.147 308.46 627.147 304.04C645.957 276.27 664.997 248.6 684.017 220.93C685.487 218.79 687.397 216.86 689.107 214.84C689.567 215.02 690.027 215.21 690.487 215.39C688.377 221.13 686.437 226.91 684.117 232.6C666.707 275.3 654.597 319.21 640.807 362.75C628.207 402.51 612.987 441.51 589.837 478.09C583.377 488.29 575.007 497.35 563.087 503.61C551.457 509.72 539.427 515.36 527.257 520.74C519.337 524.24 516.587 523.58 511.347 517.67C501.887 507 492.767 496.14 483.117 484.92C482.287 486.03 481.137 487.36 480.257 488.8C468.487 508.09 455.327 526.69 439.747 544.11C436.627 547.6 432.847 549.57 427.657 549.92C413.637 550.87 399.627 551.86 385.607 552.75C383.137 552.91 380.617 552.64 377.197 552.54C378.207 551.04 378.547 550.17 379.237 549.58C407.777 525.07 426.717 495.66 443.317 465.05C448.367 455.73 453.227 446.32 458.687 437.16C463.517 429.04 471.597 423.32 481.027 418.73C492.437 413.18 503.737 407.48 515.037 401.79C523.267 397.64 526.247 398.76 529.787 406.21C537.407 422.23 545.487 438.11 553.437 454.03C554.227 455.61 555.427 457.05 556.447 458.56C557.087 458.59 557.747 458.63 558.417 458.68Z" stroke="#E80024" stroke-miterlimit="10"/>
<path opacity="0.7" d="M243.837 397.4C260.977 398 276.607 403.02 291.757 408.94C318.427 419.36 345.337 429.47 371.227 441.09C402.687 455.21 410.237 479.06 393.177 504.59C373.737 533.69 339.427 546.06 299.047 536.17C249.237 523.96 213.097 497.79 191.747 458.89C184.137 445.03 182.387 430.48 193.477 417.08C205.397 402.64 222.647 396.56 243.837 397.4ZM291.127 513.59C312.227 515.48 327.107 506.5 333.477 491.19C337.427 481.69 334.847 473.16 325.067 467.08C319.327 463.52 312.927 460.4 306.307 458.1C285.777 450.96 265.727 455.73 252.687 470.32C245.647 478.2 245.267 484.84 252.387 492.83C263.107 504.84 277.557 512.05 291.127 513.59Z" stroke="#E80024" stroke-miterlimit="10"/>
<path opacity="0.7" d="M977.306 48.2902C1007.04 40.8502 1036.49 35.8102 1067.72 34.4302C1064.77 37.6302 1061.39 40.6202 1058.96 44.0602C1053.88 51.2402 1046.51 54.3802 1036.45 55.9002C1011.03 59.7302 986.466 66.1602 962.796 74.5602C959.706 75.6602 956.916 78.0402 954.996 80.3802C951.756 84.3302 949.206 88.6802 946.586 92.9502C945.596 94.5602 945.206 96.4102 944.536 98.1602C944.896 98.5602 945.266 98.9602 945.626 99.3602C948.556 98.5402 951.636 97.9702 954.396 96.8702C981.886 85.9002 1010.45 77.3602 1040.42 71.9502C1041.76 71.7102 1043.09 71.4602 1044.45 71.3002C1045 71.2402 1045.59 71.4002 1047.28 71.5702C1043.56 76.2302 1039.57 80.3002 1036.83 84.8702C1031.45 93.8502 1022.58 98.2302 1011.17 101.35C973.996 111.53 940.316 127.25 908.246 145.39C901.036 149.47 893.336 152.98 885.736 156.57C883.236 157.75 880.396 158.63 877.576 159.16C871.966 160.22 868.886 158.21 870.066 153.47C871.406 148.05 873.466 142.61 876.356 137.63C886.766 119.63 897.706 101.84 908.336 83.9202C914.036 74.3102 919.666 64.6702 925.006 54.9302C940.466 26.7202 967.896 11.5802 1004.61 6.7202C1036.81 2.4602 1069.32 0.9802 1101.98 1.0002C1103.55 1.0002 1105.12 1.1002 1106.68 1.2602C1107.2 1.3102 1107.68 1.7102 1109.05 2.3702C1103.47 7.8402 1098.26 13.3402 1092.44 18.3702C1090.86 19.7402 1087.45 19.9402 1084.81 20.2102C1059.36 22.8202 1033.85 25.0602 1008.46 27.9602C993.886 29.6102 983.116 35.9802 977.306 48.2902Z" stroke="#E80024" stroke-miterlimit="10"/>
<path opacity="0.7" d="M1310.97 40.7308C1305.44 44.6708 1300.98 48.4808 1295.69 51.2408C1293.81 52.2208 1289.73 50.9908 1286.94 50.1508C1270.91 45.2908 1254.95 40.3008 1239.02 35.2308C1235.7 34.1708 1233.23 34.4508 1230.58 36.4608C1210.28 51.8008 1189.91 67.0808 1169.45 82.2708C1167.72 83.5508 1165.19 84.8808 1163.01 84.8908C1145.75 84.9408 1128.48 84.6708 1111.21 84.4808C1110.47 84.4708 1109.73 84.2108 1107.74 83.8208C1126.73 61.3608 1150.11 42.8408 1173.37 24.2508C1173.26 23.7908 1173.15 23.3408 1173.04 22.8808C1154.43 21.6408 1135.82 20.3908 1115.57 19.0408C1119.29 15.4008 1122.68 12.6708 1125.2 9.48076C1130.02 3.37076 1136.39 2.04076 1145.15 2.68076C1200.67 6.75076 1253.76 18.3008 1304.44 37.5608C1306.33 38.2908 1308.04 39.3008 1310.97 40.7308Z" stroke="#E80024" stroke-miterlimit="10"/>
</svg>
