<svg width="554" height="81" viewBox="0 0 554 81" fill="none" xmlns="http://www.w3.org/2000/svg">
<path d="M66.7831 20.0212H43.8261V79.0798H23.8769V20.0212H0.919922V1.89648H66.7676V20.0212H66.7831Z" fill="#D9D9DB"/>
<path d="M102.315 0.488281C108.039 0.488281 113.41 1.49861 118.428 3.53458C123.446 5.55525 127.834 8.37195 131.595 11.954C135.339 15.5361 138.3 19.7765 140.464 24.6445C142.628 29.5123 143.718 34.7937 143.718 40.4883C143.718 46.1828 142.628 51.4642 140.464 56.3321C138.3 61.2001 135.339 65.4405 131.595 69.0226C127.849 72.6046 123.462 75.4214 118.428 77.442C113.395 79.4627 108.039 80.4883 102.315 80.4883C96.5911 80.4883 91.2354 79.4781 86.2635 77.442C81.2762 75.4214 76.9334 72.6046 73.2199 69.0226C69.5062 65.4405 66.5752 61.2001 64.4114 56.3321C62.2478 51.4642 61.1582 46.1828 61.1582 40.4883C61.1582 34.7937 62.2478 29.5123 64.4114 24.6445C66.5752 19.7765 69.5062 15.5514 73.2199 11.954C76.9334 8.37195 81.2762 5.55525 86.2635 3.53458C91.2509 1.51392 96.6065 0.488281 102.315 0.488281ZM102.422 18.9651C99.3381 18.9651 96.5143 19.4857 93.9517 20.5419C91.389 21.5981 89.1945 23.0524 87.3377 24.92C85.4809 26.7875 84.0538 29.0532 83.041 31.7015C82.0434 34.3498 81.5372 37.2735 81.5372 40.4729C81.5372 43.6725 82.0434 46.7187 83.041 49.367C84.0384 52.0153 85.4809 54.2808 87.3377 56.1484C89.1945 58.0161 91.4042 59.4703 93.9517 60.4807C96.4991 61.4909 99.3226 61.9962 102.422 61.9962C105.522 61.9962 108.1 61.4909 110.648 60.4807C113.195 59.4703 115.405 58.0313 117.262 56.1484C119.118 54.2808 120.576 52.0153 121.666 49.367C122.74 46.7187 123.292 43.7488 123.292 40.4729C123.292 37.197 122.755 34.3498 121.666 31.7015C120.576 29.0532 119.118 26.7875 117.262 24.92C115.405 23.0524 113.195 21.5829 110.648 20.5419C108.1 19.5008 105.353 18.9651 102.422 18.9651Z" fill="#D9D9DB"/>
<path d="M178.62 1.89648C182.795 1.89648 186.693 2.52411 190.33 3.76407C193.965 5.01933 197.096 6.76446 199.721 9.03004C202.344 11.2957 204.415 14.0817 205.921 17.3883C207.424 20.7101 208.176 24.384 208.176 28.4406C208.176 32.4973 207.424 36.0335 205.921 39.3094C204.415 42.5854 202.344 45.3868 199.721 47.7289C197.096 50.0709 193.965 51.8773 190.33 53.1632C186.693 54.449 182.795 55.092 178.62 55.092H168.538V79.0646H148.59V1.89648H178.62ZM168.538 19.4242V37.549H178.742C181.52 37.549 183.746 36.7071 185.418 35.0385C187.076 33.3546 187.905 31.1655 187.905 28.4254C187.905 25.6852 187.076 23.5115 185.418 21.8736C183.761 20.2355 181.535 19.4089 178.742 19.4089H168.538V19.4242Z" fill="#D9D9DB"/>
<path d="M213 2.0313H239.786C263.661 1.67217 282.052 17.7281 281.713 40.7657C282.067 63.5534 263.553 80.3278 239.786 79.9684H213V2.0313ZM239.663 61.6478C252.355 61.6478 261.212 53.4949 261.212 40.75C261.212 28.0051 252.709 20.4458 239.663 20.4458H233.024V61.6634H239.663V61.6478Z" fill="#D9D9DB"/>
<path d="M332.281 79.9741L315.005 55.7615H306.773V79.9741H286.846V2.02539H316.86C334.013 2.02539 346.414 12.7727 346.414 28.831C346.414 38.6411 342.352 45.9516 334.365 51.0284L354.538 79.9584H332.281V79.9741ZM306.789 38.0474H316.982C329.261 38.0474 329.261 19.7394 316.982 19.7394H306.789V38.0474Z" fill="#D9D9DB"/>
<path d="M391.344 1.00855C414.135 0.544764 433.973 19.0103 433.505 41.0017C433.973 63.1016 414.135 81.3352 391.344 80.9949C368.319 81.3507 348.95 63.1016 349.418 41.0017C348.95 19.0256 368.554 0.544764 391.344 1.00855ZM391.469 19.4741C385.206 19.4741 380.019 21.4692 376.114 25.4438C368.194 33.3929 368.319 48.5952 376.114 56.668C380.004 60.519 385.206 62.5138 391.469 62.5138C403.747 62.5138 412.729 53.7451 412.729 41.0017C412.729 28.2583 403.638 19.4896 391.469 19.4896V19.4741Z" fill="#D9D9DB"/>
<path d="M437.615 2.02539H468.107C485.531 2.02539 498.128 12.7727 498.128 28.831C498.128 44.8895 485.172 55.7617 468.107 55.7617H457.86V79.9741H437.615V2.02539ZM468.215 38.0317C480.688 38.0317 480.688 19.724 468.215 19.724H457.86V38.0317H468.215Z" fill="#D9D9DB"/>
<path d="M507.674 53.4052C512.737 59.9483 517.568 63.3356 524.985 63.3356C530.281 63.3356 532.993 61.4641 532.993 57.7209C532.993 56.0812 532.524 54.7975 531.465 53.9775C530.406 53.1577 528.287 51.9823 525.107 50.5902L517.101 47.079C504.027 41.3404 497.422 33.5136 497.422 23.7997C497.422 10.2343 508.608 1 524.626 1C537.23 1 546.065 6.15078 551.252 16.5608L537.714 26.8468C533.834 21.1237 530.172 18.6644 524.874 18.6644C520.279 18.6644 517.927 20.304 517.927 23.5833C517.927 26.383 519.578 27.9143 524.64 29.8942L533.6 33.6374C547.374 39.376 553.513 46.1508 553.513 56.9164C553.513 71.5337 541.501 81 524.999 81C511.227 81 499.68 74.4571 494.025 63.6915L507.689 53.4052H507.674Z" fill="#D9D9DB"/>
</svg>
